<?xml version="1.0" encoding="utf-8"?>
<!-- Generator: Adobe Illustrator 24.0.2, SVG Export Plug-In . SVG Version: 6.00 Build 0)  -->
<svg version="1.1" id="Layer_1" xmlns="http://www.w3.org/2000/svg" xmlns:xlink="http://www.w3.org/1999/xlink" x="0px" y="0px"
	 viewBox="0 0 300 103" style="enable-background:new 0 0 300 103;" xml:space="preserve">
<style type="text/css">
	.st0{fill-rule:evenodd;clip-rule:evenodd;fill:#333333;}
	.st1{fill:#808080;}
	.st2{fill:#909090;}
	.st3{fill:#FF0000;}
</style>
<g>
	<path class="st0" d="M132.24,31.09l-0.24,0.7c0.82-0.27,1.76,0.21,2.71,0.84c-0.78,0.56-1.61-0.61-2.33-0.36
		c0.04,1.61,0.68,3.25,1.87,3.36h-0.83c0.32,1.33,0.52,2.88,1.5,3.13l-0.45,0.35c0.28,2-0.39,4.01-0.9,5.19l0.23,0.6l-0.23-0.13
		c-0.48,0.83-0.16,2.96-0.44,4.09c0.18,0.67,0.83,0.59,1.19,0.97l-1.19,0.22l-0.08,0.73l0.45,0.36l-0.6,0.24
		c0.4,1.26-0.33,2,0.3,3.13l-0.22,0.61l0.37,0.59l-0.37,0.6c0.29,1.26,1.17,2.38,0.37,3.72c0.61,0.25,0.76,1.59,0.29,2.29l0.53,1.44
		c-0.57-0.54-1.86-0.21-2.4-0.6c0.2,1,0.91,0.92,1.42,1.19c-0.06,0.75-0.86,0.22-1.2,0.23l-0.3,1.34c0.83,0.56,1.63-0.3,2.41-0.12
		c0.54,0.12,0.95,0.86,1.59,0.96c0.53,0.08,0.91-0.46,1.41,0.11c0.42-0.25,0.74-0.31,1.06,0.14c1.06-0.09,2.79-0.02,3.67,0.59
		c2.99-0.16,5.82,0.63,8.71-0.13l0.37,0.35c0.27-0.19,0.65-0.24,1.05-0.22c-0.06,0.98-0.65,0.31-0.9,0.36l-0.89,0.36
		c-1.16,0.21-2.54,0.06-3.6,0.13c-1.45,0.06-3.15-0.47-4.58-0.24c-0.38,0.07-0.92-0.41-1.43-0.48c-0.52-0.06-1.04,0.2-1.35,0.11
		l-0.68-0.47c-0.7-0.22-1.42,0.12-2.1-0.13c1.9,1.72,4.34,2.29,6.9,2.78c2.08,0.37,4.22,0.76,6.38,0.96c1.59,0.14,3.21,0.26,4.95,0
		c1.97-0.3,3.9-0.68,5.93-1.2c2.66-0.7,5.34-1.26,7.79-1.69c0.68-0.12,1.3-0.64,1.96-0.72c1.24-0.16,2.69,0.12,3.75-0.49
		c0.45,0.88,1.1,0.3,1.95,0.49l0.67,0.47c0.57,0.3,1.26,0.3,1.88,0.49c0.93,0.29,1.89,0.77,2.85,0.98c1.6,0.27,3.23,0.29,4.8,0.36
		c1.69,0.04,3.55,0.43,5.24,0.47c2.16,0.06,4.85,0.5,6.68,0.13c-2.69-0.5-5.52-0.76-8.1-0.74c-0.55,0-1.43-0.06-1.94-0.21
		l-0.31-0.39c-1.13,0.74-2.86-0.13-4.04-0.34c-0.72,0.48-1.78,0.03-2.41-0.12c0.94-0.22,2.22-0.15,2.93,0.12
		c0.3-0.13,0.79-0.39,1.2-0.36l0.3,0.36l0.97-0.24c0.52,0.02,0.85,0.08,1.21,0.58l0.36-0.46c0.99,0.13,1.46,0.44,2.49,0.12
		c0.41,0.56,1.09,0.06,1.72,0.11l0.67,0.36l0.75-0.23c0.95,0.04,1.82,0.1,3,0.49l0.6-0.27c1.58,0.59,2.91,0.39,4.65,0.48
		c0.66,0.04,1.42,0.35,2.18,0.36c0.77,0.05,1.61-0.25,2.18,0c0.57,0.27,1.44,0.71,2.25,0.25l0.38,0.48l0.68-0.24
		c1.1,0.09,2.61,0.32,3.91,0.34c0.69,0.03,1.46,0.08,1.87-0.46c-1.38,0.08-2.29,0.23-3.46-0.48c-0.4,0.18-1.07,0.44-1.34-0.11
		c-0.44,0.71-1.12-0.21-1.65,0c-0.01-0.95,0.49-0.46,0.68-0.14c1.04-0.48,2.23-0.09,3.3-0.11c0.84-0.02,1.92,0.26,2.48-0.74
		c-0.75-0.38-2.43,0.44-2.63-1.31c1.89,0.39,4.16,0.51,5.7,1.8c0.95,0.02,2.3,0.04,3.46,0.14c0.63,0.03,1.76-0.79,1.64,0.47
		l0.15-0.73c4.12,0,8.46-0.78,12.75-0.95l0.31,0.37l0.37-0.48l0.9,0.24c2.05-0.83,4.61-0.66,7.06-0.48
		c-0.61,1.7-2.03-0.56-2.63,0.95c-0.66-0.47-0.59-0.22-1.43-0.35l-0.22,0.48c-0.53-0.37-1.19-0.24-1.5,0.23
		c-0.81,0.21-1.86-0.91-2.33,0c1.56,0.78,3.38,0.06,4.8,0.38c0.53-0.55,1.54-0.14,2.24-0.11l0.15-0.39l0.39,0.5
		c0.3-0.47,0.73-0.75,0.74-1.69c2.34-0.22,4.87-0.29,7.8-0.12c2.99,0.18,5.7,0.62,8.93,1.07c0.96,0.15,2.03,0.19,2.85,0.84
		c0.49-0.67,1.55,0.61,2.26,0c0.62,0.59,1.48,0.33,2.09,0.74c1.62-0.7,4.48,1.72,6.15,0.23l-1.2-0.97c-3.33-0.57-5.94-1.96-8.86-2.4
		c1.61-0.31,3.86-0.25,5.7-0.25c-2.01-2.04-5.9-0.78-8.48-1.17c0.09-0.83,0.9-0.23,1.28-0.38c-0.88-0.84-2.24-0.88-3.53-1.31
		l-0.08-0.63c-1.35-0.29-2.21,0.48-3.29,0.14l0.29-0.49c-2.07-1.1-4.55-0.53-6.68-1.08c-0.67-0.17-1.35,0.06-2.1,0
		c-3.31-0.32-7-0.55-10.43-1.22l-0.37-0.95c-0.77,0.03-1.74,0.18-2.25-0.47c0.57-0.49,1.18-0.25,1.79-0.36l0.45-0.35l0.3,0.22
		c0.58,0.04,1.45-0.16,2.25-0.22c1.35-0.13,2.5-0.24,4.2-0.13c2.62,0.18,5.34,0.28,7.96,0.61c4.89,0.63,9.92,1.99,14.25,1.79
		c0.85-0.04,1.63-0.45,2.41-0.36c2.64,0.33,5.47,1.49,8.1,1.56c-3.25-1.35-6.4-1.44-9.53-2.04c-0.47-0.08-0.94-0.4-1.43-0.47
		c-0.71-0.13-1.36,0-2.03-0.25c-0.61-0.23-1.7-0.52-2.32-0.95c-0.29,0.35-0.64,0.14-1.05,0.11l-0.9-1.55
		c-0.9-0.3-1.42-0.02-2.03,0.11c-0.38-0.58-0.14-0.78,0.08-1.69h0.89l-0.52-0.6c0.22-0.28,0.77-0.04,1.12-0.11l-0.07-0.5
		c0.92-0.8,2.37,0.31,3.22,0c0.68,1,2.23,0.75,3.45,1.11c0.69,0.18,0.91,0.58,1.8,0.47c1.21-0.14,2.87-0.39,3.98-0.47
		c0.86,0.34,1.73,0.61,2.55,0.72l0.08-0.72c2.89,0.16,5.39,0.78,8.1,1.32c1.19,0.22,2.29,0.91,3.45,0.95
		c2.41,0.12,5.07,1.32,7.81,0.58l-0.23-1.31l-0.3,0.6l-0.38-0.6c-0.88-0.02-1.99-0.49-2.92-0.48l-0.38,0.25l-0.45-0.38
		c-0.73-0.28-1.62-0.33-2.41-0.47c-3.61-0.68-7.55-1.62-11.25-2.4c-4.54-0.98-8.75-2.5-13.43-3c-1.35-1.38-3.37-0.86-5.33-1.09
		c-0.81-0.09-1.6-0.23-2.4-0.36c-3.14-0.47-6.44-0.79-9.53-0.61c-1.22,0.08-2.3-0.48-3.45-0.58c-0.79-0.11-1.57,0.33-2.18-0.36
		c0.2-0.54,0.69-0.6,1.13-0.73l-0.23-0.71l0.53-0.36c-1.37-0.18-2.56,0.21-4.2,0.12c-1.5-0.1-2.75,0.28-3.83-0.25l-0.45,0.36
		l-0.45-0.6l0.38-0.72c1.03-0.48,1.92,0.17,2.63-0.11c0.48-0.19,0.76-0.92,1.34-0.86l-0.58-0.22c0.36-0.7,0.98-0.18,1.5-0.24
		c0.65-0.07,1.3-0.46,2.02-0.72l-0.15-1.34c0.45-0.48,1.08-0.47,1.58-0.47c4.78-0.02,9.85,0.21,14.4,0
		c0.83-0.05,1.59-0.34,2.32-0.38l0.84,0.12c0.35-0.06,0.68-0.58,1.12-0.58c0.4-0.02,0.74,0.26,1.05,0.36c1.12-0.93,2.81,0.28,4.12,0
		c-0.26-0.8-0.96-0.8-1.42-0.86c-1.81-0.2-3.84,0.01-5.48-0.48c-0.99-0.29-1.82-0.86-2.77-0.94l-0.3-0.61
		c-1-0.65-2.59-0.06-3.67-0.36l-0.53-0.48l-0.29,0.36c-1.02-0.77-1.71-0.19-3-0.25l-0.3-0.36c-1.38,0.44-2.98-0.1-4.58,0l0.08-0.36
		l-0.3,0.36c-0.86,0.36-1.58-0.06-2.25,0.25c-0.48,0.03-0.03-0.74-0.45-0.85l-0.3,0.85c-1.24-0.02-2.24,0.03-3,0.23l-0.38-0.72
		c-0.49-0.23-0.56,0.39-1.05,0l0.75-0.59c1.31-0.16,3.11,0.16,4.57-0.14l-0.3,0.6l0.75,0.26v-0.97c0.71-0.26,1.7,0.13,2.63,0
		l-0.37,0.47c0.58,0.62,0.84,0.37,1.35,0.13l-0.75-0.13v-0.57c0.64,0.21,2.58,0.09,3.53,0.11l0.3,0.71l0.37-0.71
		c0.83,0.3,1.58-0.28,2.17,0l0.16,0.36c0.27-0.49,0.73-0.2,1.2-0.25l-0.14,0.73c0.71-0.35,1.49-1.74,2.24-0.59l-0.52,0.36l0.83,0.37
		l-0.09-0.73c0.38-0.14,0.33,0.24,0.39,0.36c0.54-0.99,1.61-0.04,2.09-0.85c0.23,0.57-0.66,1-0.29,1.8
		c0.17-0.53,0.64-0.58,0.53-1.55c0.41-0.02,0.86,1,1.2,0c0.45,0.44,1.71,0.69,2.02,0.11c0.47,0.94,0.84,0,1.34,0.6l-0.13,1.09
		l0.67-0.38h-0.38v-0.83c1.99,0.45,4.07,0.37,6.37,0.83l-0.22,1.08c0.35,0.15,0.52-0.38,0.37-0.71l0.72,0.08l0.11-0.08l0.02,0.08
		c1.32,0.19,2.55,0.78,3.59,0.39l0.15,0.6c0.54-0.29,1.36-0.44,1.5,0.48l0.38-0.73l0.46,0.5c0.6,0.16,1.65-0.09,2.09,0.58
		c3.09-0.02,6.38,1.26,9.75,2.06l0.53-0.24l0.6,0.36c1.56-0.27,2.77-1.2,4.28-1.2c-0.77-0.62-1.92,0-2.92-0.14
		c-0.3-0.03-0.61-0.23-1.06-0.37c-0.55-0.1-1.12-0.5-1.72-0.71c-0.62-0.21-1.28-0.11-1.88-0.23l-0.97-0.47
		c-1.88-0.51-3.79-0.94-5.77-1.35c-0.46-0.08-0.89-0.46-1.35-0.59c-1.97-0.58-4.17-0.65-6.23-1.08c-0.5-0.09-0.98-0.42-1.49-0.47
		c-0.58-0.08-1.18,0.02-1.73-0.13c-2.35-0.61-4.63-0.75-6.75-1.09c-1.21-0.19-1.71-0.14-2.03-2.16c-0.5-0.02-1.77,0.69-2.39-0.23
		c-0.8-0.21-1.67,0.84-2.18,0c-0.45,0.57-1.17,0.36-1.42-0.36c0.19-0.74,1.08-0.66,1.5-0.36c1.46-0.35,3.19-0.35,4.43,0.36
		c0.13-0.66,0.72-0.57,1.05-0.6v-0.47c-1.64-0.99-4.62-0.11-6.67-1.7c1.41-0.03,3.32-0.55,5.03-0.48c0.88,0.04,1.71,0.46,2.62,0.48
		c1.06,0.05,2.13,0.41,3.22,0.48c3.37,0.24,6.03,0.58,8.86,0.83c-0.12-0.77-1.2,0-1.28-0.83c-1.32,0.27-2.73-0.84-4.28-0.73
		l-0.6,0.24l-0.75-0.36c-0.35-0.06-0.68,0.18-0.98,0.12l-0.75-0.49l-0.38,0.25h-0.9v-0.47l-0.68,0.47l-0.82-0.61
		c-1.85-0.07-3.7-0.4-5.55-0.35c-1.67,0.05-3.71-0.74-5.26-0.6c-0.5,0.03-0.98,0.36-1.5,0.36c-0.92,0-1.95,0.13-2.62-0.36
		c-3.16-0.36-5.79,0.34-8.48-0.12c-1.38,0.3-2.86,0.21-4.13,0.23l-0.07-0.59l0.45,0.36l0.08-0.58c0.86,0.19,2.12-0.59,3,0.11
		l0.23-0.36l0.29,0.74l0.3-0.62c3.91-0.26,6.69-0.6,10.21-0.24l0.29,0.38c0.88,0.11,1.91-0.25,2.7-0.25l0.61,0.36
		c0.19-0.02,0.55-0.72,0.74,0.12l0.38-0.48c0.75,0.23,1.44,0.86,2.02,0c0.63,0.1,0.57,0.36,1.2,0l0.23,0.6l0.07-0.49
		c1.54-0.21,2.94,0.49,4.36,0.24c-0.41-0.6-1.3-0.74-2.03-0.84c-3.2-0.52-6.84-0.06-10.28-0.72l-0.45-0.6
		c-1.14,0.18-2.29-0.49-3.45-0.49c-0.9,0-1.9,0.58-2.55-0.13c0.8-1.69,2.86,0.25,4.06-0.95c-0.69-0.21-1.26,0.11-1.81-0.37
		c0.55-0.68,1.42-0.7,2.11-0.72c1.31-0.04,2.73,0.08,4.12,0.13c3.28,0.01,7.21,0.36,10.43,0.7c1.98,0.22,3.57,0.19,5.03,0
		c-1.89-0.83-4.45-0.56-6.68-1.19c2.23-0.21,5.43,0.25,7.95,0.96v0.48l0.15-0.37c0.25,0.12,0.79-0.05,1.2,0.12
		c1.48,0.61,3.99,0.94,5.85,1.2c2.82,0.46,5.41,1.19,8.33,1.93c2.18,0.56,4.05,1.16,5.85,1.32l0.68-0.48c2.51,0.96,4.98,0.82,7.5,0
		c-1.5-0.7-2.71,0.21-4.28-0.24c0.64-0.41,1.41-0.08,2.25-0.49c-1.78-0.63-5.32-0.37-7.2-0.95c-1.14-0.33-2.72-0.94-3.75-1.55
		c1.19-0.5,2.78-0.5,4.13,0.23l0.6-0.23c3.87,0.97,8.45,1.21,11.71-0.74c-0.59-0.63-1.33,0.3-2.1,0.48
		c-1.77,0.42-3.85,0.17-5.4,0.25c-0.95-0.72-3.09-0.06-3.98-0.97l-0.6,0.23l-0.15-0.48l-0.97-0.12c-0.33-0.1,0.06,0.23-0.16,0.23
		c-0.89-0.91-2.88,0.22-3.75-0.96c-0.43,0.06-0.77,0.25-0.9-0.36c-0.22,0.5-0.85,0.28-1.2,0l-0.59,0.23
		c-0.36-0.05-0.63-1.33-0.9-0.47l-0.3-0.61c-1.69-0.21-4.7-1.44-6.76-1.8c-0.18,0.12,0.21,0.75-0.15,0.74c-0.34,0,0.11-0.34,0-0.74
		c-0.47,0.28-0.9-0.32-1.35-0.47l0.9-0.13c1.14,0.13,2.67,0.6,4.05,0.73c0.65,0.05,1.23-0.09,1.8-0.25
		c0.33,0.06,0.42,0.53,0.75,0.61c0.95-0.09,1.94-0.44,2.47,0.49l0.38-0.37c1.05,0.5,2.19,0.91,3.3,0.74
		c-0.37-0.49-1.07-0.49-1.8-0.6c-4.74-0.75-10.02-2.77-15.15-3.49c-0.93-0.14-1.88,0.21-2.48-0.61c0.69-0.73,1.87-0.11,2.55,0.12
		c0.47-0.37,1.26-0.22,1.81-0.47l0.37,0.35c0.96-0.4,2.73,1.17,3.53-0.13c-10.35-2.46-21.51-2.33-31.96-2.63
		c-1.61-0.05-3.17-0.14-4.72-0.74c-1-1.12-2.45-0.92-3.68-1.21c-3.64-0.8-7.17-3.43-11.1-3.24c1.7,1.32,4.76,0.47,5.55,3.24
		c-0.94,0.89-1.99-0.13-3.3,0c-0.19-0.57-0.53-0.56-0.98-0.46c-0.41-0.4-1.31-0.74-1.8-0.38c-0.53-0.78-1.6-0.5-2.41-0.47
		c1.63,0.31,3.3,0.63,4.58,1.8c-0.71,0.71-1.64,0.29-2.47,0.23c-3.69-0.28-8.12-0.39-11.48-1.43c0.28-0.79,1.56,0.07,1.72-0.85
		c-0.35,0.44-0.58-0.39-0.82-0.48l-0.75,0.12c-1.76-0.02-4.02-0.29-5.86,0l-0.37-0.6c-1.24,0.11-2.2-0.08-3.15,0l-0.3-0.47
		c-0.82,0.04-1.71,0.42-2.03-0.74c0.45-0.41,1-0.63,1.43-1.07c0.52,0.06,1.55,0.06,1.87-0.61c-3.28,0.36-7.34,0.17-11.1,0.73
		c-4.22,0.61-8.53,0.8-12.68,1.43c-1.02,0.17-2.2,0.42-3.23,0.38c-0.72-0.05-1.38-0.56-2.1-0.62c-5-0.48-9.53,0.24-15,0.24
		c-1.34,0-2.7-0.21-4.05-0.11c-4.1,0.3-8.21,0.15-11.78-0.14c-0.34-0.01-0.71-0.24-1.05-0.24c-1.13,0-2.08,0.68-3.38,0.86
		c-0.06,2.4-2.26-0.04-2.63,1.89l0.68,0.13c0.04,1.34-0.42,2.84-0.38,4.58l0.52,0.61h-0.6c0.29,1.9,0.52,5-0.23,6.59l0.45,0.5
		c-0.13,0.31-0.38,0.5-0.75,0.47c-0.03,1.1-0.94,2.7-0.23,3.5C131.61,24.09,131.21,29.77,132.24,31.09z M288.95,24.22
		c0.56,0.13,1.13-0.22,1.49,0.36C289.89,24.56,289.27,24.61,288.95,24.22z M276.41,20.37c0.57-1.28,2.37-0.16,2.93,0.48
		C278.6,21.27,277.02,20.99,276.41,20.37z M268.39,15.81c0.25-0.27,0.82-0.04,1.2-0.13v0.61C269.07,16.34,268.61,16.25,268.39,15.81
		z M256.61,19.29c0.33-0.35,0.86-0.16,1.13,0.24L256.61,19.29z M256.39,14.24h0.96H256.39z M256.15,29.16l0.38-0.27L256.15,29.16z
		 M246.32,28.67l-0.36-0.12L246.32,28.67z M250.23,28.55c0.65-0.08,1.83-0.31,2.63,0.12C251.73,28.87,251.35,28.85,250.23,28.55z
		 M245.81,30.23c0.46-0.5,1.37-0.16,1.79,0.12l0.23-0.35c0.58-0.19,1.07-0.02,1.81,0c0.53,0,1.52-0.46,1.5,0.58l-0.37-0.47
		c-0.55,0.2-0.71,0.56-1.12,0l-0.31,0.47C248.42,30.36,246.76,30.93,245.81,30.23z M254.66,39.25h0.38H254.66z M254.06,39.48h0.3
		H254.06z M246.64,36.6l0.45-0.12L246.64,36.6z M245.51,39.37l0.52-0.13L245.51,39.37z M256.91,54.75h-0.38v-0.23l0.16-0.12
		L256.91,54.75z M257.58,54.64c0.33-0.04,0.52-0.21,0.75,0.11L258.04,55L257.58,54.64z M260.29,59.32c0.37-0.55,0.82-0.19,1.27,0
		c0.64-0.21,2.03,0.06,2.92,0.47c-0.75,0.93-2.14-0.12-3.15-0.12C260.88,59.68,260.49,59.93,260.29,59.32z M259.99,57.88l0.31,0.36
		L259.99,57.88z M257.29,57.52c0.49,0.27,1.72-0.13,2.4,0.47C259.21,57.79,257.7,58.23,257.29,57.52z M256.09,57.52l1.05,0.23
		L256.09,57.52z M255.11,54.51h1.12C255.87,54.59,255.4,55.03,255.11,54.51z M253.15,57.15l0.84,0.24L253.15,57.15z M250.6,57.28
		h1.21H250.6z M246.4,57.03h0.9l0.52,0.12c-0.2,0.11-0.41,0.11-0.75,0L246.4,57.03z M244.98,56.93l0.38,0.22L244.98,56.93z
		 M240.4,57.39l0.46-0.11L240.4,57.39z M238.82,57.28c0.39-0.13,0.55,0.04,0.83-0.14L238.82,57.28z M264.56,66.88l0.9,0.14
		C265.11,66.99,265.01,66.94,264.56,66.88z M243.19,65.09c0.81-1,2-0.29,3.07-0.22c1.46,0.06,3.04-0.3,4.13,0.71
		c-1.93,0.54-3.73,0.59-5.71,0.36C244.17,65.88,243.35,65.88,243.19,65.09z M197.87,13.54l-0.37,0.7l-0.23-0.59L197.87,13.54z
		 M199.37,14.24c-0.46,0.29-0.01,0.27-0.83,0l-0.08-0.47c0.42,0.03,0.56-0.21,0.91,0V14.24z M206.27,14.59
		c-0.46,0.49-0.93-0.18-1.57-0.12c0.34-0.91,0.91-0.32,1.49-0.35L206.27,14.59z M212.73,14.24c-0.2,1.1-1.31,0.86-1.87,0.48
		l-0.23,0.48c-0.43,0.05-1.06-0.74-1.5-0.48l-0.08,0.36l-0.08-0.36c-0.36-0.14-0.33,0.46-0.75,0.6c-0.62,0.22-1.35-0.33-1.79-1.19
		C208.39,13.92,210.26,14.19,212.73,14.24z M213.03,14.36l-0.15,0.72L213.03,14.36z M226.24,14.85c-3.53-0.34-6.99,0.63-10.44,0
		l-0.45,0.23c-0.53-0.23-0.64-0.09-1.27,0l-0.15-0.6c-0.32,0.6-0.35-0.02-0.75,0.12l0.75-0.36c0.89,0.04,2.1-0.13,3.22,0.24h1.65
		C220.47,14.44,224.18,13.6,226.24,14.85z M215.65,29.51h-0.38H215.65z M221.72,25.42h0.38c-0.15,0.86-0.36,0.88-0.6,1.56
		c-0.54-0.15-1.4,0.48-1.73-0.47l0.46-0.61l0.45,0.61l0.14-0.49l0.3,0.84l0.23-1.21l-0.15,0.72l-0.23-0.72l0.6-0.23l0.07,0.6
		L221.72,25.42z M220.53,25.42l0.37,0.36L220.53,25.42z M220.23,27.71h-0.38H220.23z M220.6,29.02c-0.71,0.41-1.5-0.25-2.25-0.12
		c-0.59-0.13,0.26-0.02,0.3-0.23C219.32,28.97,220.23,28.31,220.6,29.02z M217.83,27.95c0.3-0.24,1.21-0.24,1.72-0.24
		c-0.13,0.82-0.69,0.24-1.12,0.24H217.83z M217.98,28.89l-0.6,0.12L217.98,28.89z M217.22,26.37c0.69,0.21,1.59-0.31,1.95,0.14
		c0.21-0.06,0.11-0.65,0.45-0.49l-0.15,0.96c-0.52,0.12-0.81-0.15-1.12-0.38l-0.23,0.38L217.22,26.37z M228.25,9.91
		c-0.86-0.24-1.86,0.02-2.25-0.73c0.7-0.48,1.46,0.6,2.33,0.6C228.69,9.74,228.5,10.01,228.25,9.91z M229.08,26.02
		c-2.06,1.1-4.33,0.44-6.23,1.08l-0.23-0.38l-0.44,0.25l0.52-0.61l-0.45-0.72c1.38-0.55,3.02,0,4.05-0.23
		c0.58,0.8,1.56,0.23,2.56,0.36l0.07-0.36L229.08,26.02z M229.9,25.3c-0.21,0.06-0.11,0.63-0.45,0.48l-0.08-0.48H229.9z
		 M230.59,25.78l-0.53-0.13l0.23-0.72L230.59,25.78z M233.28,32.52c-3.99,0.92-7.94-1.17-11.7-1.8c0.31-0.94,1.39-0.68,2.18-0.6
		c0.93,0.08,1.89,0.5,2.25,0.24l0.3,0.47c0.29,0.13,0.12-0.51,0.45-0.35c0.55,0.66,1.3,0.27,1.95,0.48l0.75,0.5l0.45-0.14
		c0.29,0.07,0.64,0.6,0.97,0.6C231.5,31.9,232.51,31.9,233.28,32.52z M226.15,36.14l0.31-0.25l0.15,1.07l-0.37-0.11L226.15,36.14z
		 M226.61,36.14c0.24-0.21,1.25-0.62,1.2,0.58c-0.4,0.1-0.65-0.3-0.83,0.13l-0.15-0.61l-0.15,0.36L226.61,36.14z M228.93,35.63
		l-0.07,1.09h-0.46l-0.37-0.13l-0.16-0.71L228.93,35.63z M229.46,36.24v0.48l-0.52-0.13l0.52-0.97c0.34,0.02,0.76-0.11,0.83,0.36
		C230.06,36.18,229.83,36.32,229.46,36.24z M231.18,48.63c-0.17,0.74-0.87,0.48-1.35,0.48c-1.05,0-2.19-0.05-3.01,0.11
		c-0.22-0.73-0.94-0.65-1.28-1.2C227.34,47.27,229.19,48.04,231.18,48.63z M230.51,43.69c0.32,0.07,0.84-0.15,1.04,0.11
		L230.51,43.69z M224.43,43.93c1.77-0.44,4.53-0.25,5.93-0.23l-0.15,0.36C228.64,43.84,226.31,44.3,224.43,43.93z M235.39,36.47
		l-0.45-0.33h0.45V36.47z M235.09,43.22l0.36-0.24L235.09,43.22z M234.48,37.08l0.67-0.13L234.48,37.08z M232.45,36.6l-0.9-0.61
		v0.36l0.53-0.11c-0.1,0.69-1.34,0.56-1.72,0.36h0.67l0.38-0.61l-0.15-0.23l-0.83-0.12c1.04-0.03,2.57-0.6,3.45,0l-0.3,0.51
		c0.42-0.12,1.06-0.53,1.13,0.33C233.87,36.69,233.05,36.39,232.45,36.6z M231.71,43.69l0.67-0.25L231.71,43.69z M234.63,65.82
		l0.76-0.48c1.71-0.17,3.67,0.05,5.1,0.71c-1.66,0.36-3.85,0-5.33-0.11L234.63,65.82z M231.63,64.49l0.37-0.36v0.36H231.63z
		 M214.6,62.44c2.21-0.12,4.02-0.36,5.93-0.48c0.35-1.08,1.26-0.36,1.95-0.25c0.84,0.15,1.91,0.04,2.77,0.25
		c1.66,0.39,3.74-0.56,5.56-0.11c0.83,0.17,1.56,0.65,2.4,0.72c0.35,0.02,0.7-0.15,1.05-0.14c1.4,0.06,2.97,0.62,4.27,0.6
		c0.44,0,0.75-0.31,0.98,0.35c-1.39,0.41-4.25,0.38-6.3,0.25l-0.07-0.72c-0.5-0.08-0.96,0.06-1.5,0c-0.8-0.1-1.75-0.65-2.33-0.6
		l-0.6,0.6c0.76,0.72,2.04,0.59,2.71,1.44c-1.32,0.14-3.01-0.53-4.43-0.72c-0.65-0.08-1.31,0.26-1.73-0.25l-0.29,0.38
		c-1.43-0.02-2.5,0.08-3.98-0.12l-0.6-0.96C218.33,62.58,216.13,63.35,214.6,62.44z M222.78,44.18l0.67-0.12
		C223.23,44.21,223.12,44.08,222.78,44.18z M222.7,47.31l-0.3,0.1L222.7,47.31z M221.95,44.18l0.61,0.13L221.95,44.18z
		 M220.23,44.18l0.59,0.13L220.23,44.18z M219.4,38.05l0.38-0.12L219.4,38.05z M212.88,37.08v-0.74l0.82,0.25h0.75
		c0.31-0.56,0.98-0.19,1.35,0c1.65-0.48,3.59-0.09,5.41-0.25l0.22,0.38l0.76-0.25l-0.46,0.25l0.38,0.47c0.35-0.61,0.9,0.3,1.2-0.34
		l-0.97-0.5c0.31-0.38,0.92-0.21,1.35-0.11l0.08,0.84c0.24-1.41,1.3-0.8,2.25-1.09v0.97l-0.67-0.11l-0.08-0.38
		c-0.14,0.25-0.07,0.86-0.45,0.72l-0.14-0.47c-0.45,1.44,0.99,0.92,1.49,0.97c0.38,0,0.77,0.28,1.28,0.47
		c0.79,0.3,1.83,0.03,2.4,0.72c-0.77,0.94-1.88,0.11-2.85,0c-1.67-0.19-3.52,0.38-5.1-0.25l0.15-0.58
		c-0.52,0.22-1.31,0.05-1.95,0.12l-0.22-0.74h-0.68l-0.07,0.74c-0.33-0.31-0.33-1.1-0.9-0.74l-0.08-0.58l-0.3,0.58
		C216.09,36.82,214.86,37.85,212.88,37.08z M212.12,66.4c0.33,0.1,0.42-0.19,0.75-0.11v1.33h-0.45L212.12,66.4z M208.15,37.08
		l-0.3-0.48c0.54-0.13,0.78-0.13,1.27-0.36l0.3,0.61l1.05-0.25c0.45-0.63,1.35-0.21,2.11-0.25l0.15,0.84
		c-0.49-0.01-1.03-0.11-1.51,0l-0.37-0.72l-0.23,0.72c-0.5-0.65-1.38,0.05-1.95-0.47L208.15,37.08z M207.25,69.53
		c-0.06-0.92,0.37-0.28,0.67-0.61l-0.07,0.61H207.25z M203.49,35.99c1.39-0.23,2.79,0.08,4.21,0.15c0.06,1.15-1.18,1.02-1.57,0.33
		l-0.6,0.38C205.13,35.76,204.01,36.85,203.49,35.99z M202.37,14.24l-0.07-0.47c0.44,0.09,1.35-0.36,1.65,0.36l0.14-0.36l0.45,0.71
		C203.75,14.57,203.18,14.69,202.37,14.24z M202.22,35.76l0.97,0.39l0.23,0.1C202.8,35.97,202.37,36.46,202.22,35.76z M200.72,14.59
		h-1.05l-0.07-0.95c1.02,0,1.89,0.17,2.63,0.13l-0.15,0.71C201.57,14.21,201.09,14.25,200.72,14.59z M200.35,35.89l0.67,0.1
		L200.35,35.89z M199.52,35.89c0.31,0.08,0.26-0.39,0.6-0.26l0.08,0.36L199.52,35.89z M198.17,68.09l0.38,0.24L198.17,68.09z
		 M197.57,68.46l0.3-0.37L197.57,68.46z M197.12,35.52c0.57,0.34,1.89-0.39,2.33,0.37C198.37,36.01,197.75,36.03,197.12,35.52z
		 M195.25,14.13v-0.72l0.37,0.36c0.41-0.46,0.83-0.28,1.28-0.49l0.08,0.73C196.27,14.13,195.79,13.82,195.25,14.13z M194.8,35.28
		c0.48-0.05,0.64-0.11,0.97,0.24C195.4,35.49,194.92,35.89,194.8,35.28z M194.05,13.41l1.05,0.47c-0.39,0.04-0.74,0.1-1.05,0V13.41z
		 M193.9,13.41L193.67,14c-0.44-0.65-1.45,0.21-2.25-0.36c-0.27,0.28-0.59,0.09-1.06,0.23c-0.45-0.47-0.5-0.19-1.04-0.23
		c0.55-0.82,1.51-0.51,2.16-0.11C192.07,12.76,193.46,13.69,193.9,13.41z M193.6,35.52l0.37-0.36L193.6,35.52z M192.09,68.22
		c0.1-0.63,0.99-0.54,1.36-0.38v0.38C193.07,68.26,192.52,68.4,192.09,68.22z M190.75,35.16c0.87,0,1.74-0.18,2.63,0.12
		C192.7,35.6,191.34,35.76,190.75,35.16z M190.52,68.22l0.53-0.24L190.52,68.22z M188.04,34.92c0.98,0.16,1.84,0.19,2.63,0.11
		l-0.15,0.25C189.89,35.33,188.5,35.55,188.04,34.92z M187.37,34.92h0.52H187.37z M186.02,34.67l0.29,0.36l-0.29,0.14V34.67z
		 M162.01,32.4l-0.52,0.12L162.01,32.4z M172.89,31.09c-0.65-0.24-1.33,0.87-1.72,0C171.74,30.95,172.64,30.38,172.89,31.09z
		 M174.92,30.82c-0.42,0.59-1.42,0.39-1.88,0.13C173.47,30.37,174.23,31.04,174.92,30.82z M175.67,33.72h-0.45H175.67z M180.55,34.2
		c0.38,0.13,1.15-0.36,1.2,0.36C181.28,34.39,180.82,34.42,180.55,34.2z M180.24,65.82l0.75,0.12L180.24,65.82z M179.72,65.93
		l0.08-0.36v0.24l0.37,0.12H179.72z M179.49,34.08l0.9,0.23C180.06,34.5,179.63,34.35,179.49,34.08z M178.74,33.83l0.45,0.25
		L178.74,33.83z M177.62,33.47c0.38,0,0.64,0.17,0.83,0.48C178.17,33.75,177.64,34.45,177.62,33.47z M176.64,30.23
		c1.65-0.33,2.89-0.54,4.36-0.85l0.37,0.49c0.49-0.9,1.74-0.24,2.26,0.24c-2.03,0.46-3.76-0.34-5.25,0.6
		C177.87,30.17,177.19,30.85,176.64,30.23z M174.09,63.88c0.64-0.11,1.42-0.13,1.95-0.71l0.53,0.48l-0.6,0.12l-0.15,0.59
		C175.3,63.77,174.66,64.49,174.09,63.88z M172.07,63.39c1.14,0,2.28-0.82,3.45-0.35c-1.16,0.5-2.39,0.32-3.37,1.19L172.07,63.39z
		 M170.34,64.97l0.23-0.74L170.34,64.97z M168.24,64.6l0.38-0.72c1.22,0.09,2.13-0.48,3.37-0.48l-0.15,1.35h-0.38l-0.07-0.72
		l-0.45,0.72l-0.3-0.61c-0.33,0.06-0.73,0.04-0.75,0.61l-0.75,0.13l-0.45-0.84l0.08,0.72L168.24,64.6z M167.94,64.13l0.07-0.25h0.46
		L167.94,64.13z M167.94,31.32c1.32,0.26,2.05-0.42,2.93-0.22l-0.07,0.45c-0.33,0.13-0.7,0.05-1.05,0.13
		C169.07,31.82,168.02,32.73,167.94,31.32z M167.64,31.67c-0.42,0.13-0.71,0.44-0.97,0H167.64z M164.34,65.57
		c-0.33,0.16-0.31-0.02-0.53-0.24c-0.22,0.3-0.22,0.34-0.6,0.24v-0.71c1.26-0.27,2.96-0.91,4.2-0.63c-0.36,0.41-0.85-0.03-1.05,0.74
		l0.53,0.22c-0.93-0.02-1.31,0.09-2.11,0.25c-0.18,0.19-0.1,0.79-0.45,0.73V65.57z M163.13,66.53l1.05-0.36
		C164.05,66.86,163.5,66.23,163.13,66.53z M161.86,65.82l0.6-0.11L161.86,65.82z M161.11,65.2c0.7-0.44,1.35-0.37,2.02-0.22
		C162.57,65.29,161.53,65.73,161.11,65.2z M157.13,66.53c0.53-0.16,1.17-0.15,1.35-0.82l0.15,0.47c0.29-1.1,1.41-0.66,2.26-1.09
		c0.07,0.48-0.17,0.68,0.29,0.84C160.09,66.29,158.15,66.73,157.13,66.53z M135.98,32.4l0.08-0.38c0.65,0.43,2.26,0.08,2.93,0.85
		C138.2,32.98,137.08,32.46,135.98,32.4z M135.37,32.02l0.45,0.25L135.37,32.02z M133.88,9.79l0.37,0.13L133.88,9.79z"/>
	<g>
		<path class="st1" d="M97.27,95.72c0,0.76-0.27,1.41-0.81,1.95c-0.54,0.54-1.19,0.81-1.95,0.81h-3.35
			c0.28-0.14,0.48-0.32,0.59-0.54v-8.57c-0.12-0.22-0.31-0.4-0.59-0.54h3.35c0.76,0,1.41,0.27,1.95,0.81
			c0.54,0.54,0.81,1.19,0.81,1.95V95.72z M93.6,96.64h0.92c0.25,0,0.47-0.09,0.65-0.27c0.18-0.18,0.27-0.39,0.27-0.65v-4.13
			c0-0.25-0.09-0.47-0.27-0.65c-0.18-0.18-0.4-0.27-0.65-0.27H93.6V96.64z"/>
		<path class="st1" d="M104.13,98.48h-6.1c0.28-0.14,0.48-0.32,0.59-0.54v-8.57c-0.12-0.22-0.31-0.4-0.59-0.54h6.1v2.42
			c-0.14-0.28-0.32-0.47-0.54-0.59h-3.14v2.07h2.99v1.83h-2.99v2.07h3.14c0.22-0.11,0.4-0.31,0.54-0.59V98.48z"/>
		<path class="st1" d="M111.95,98.48c0.28-0.14,0.48-0.32,0.59-0.54v-5.56l-2.53,4.55l-2.53-4.55v5.56c0.12,0.22,0.31,0.4,0.59,0.54
			h-3.02c0.28-0.14,0.48-0.32,0.59-0.54v-8.57c-0.12-0.22-0.31-0.4-0.59-0.54h2.56l2.39,4.31l2.4-4.31h2.56
			c-0.28,0.14-0.48,0.32-0.59,0.54v8.57c0.12,0.22,0.31,0.4,0.59,0.54H111.95z"/>
		<path class="st1" d="M118.43,98.48c-0.76,0-1.41-0.27-1.95-0.81c-0.54-0.54-0.81-1.19-0.81-1.95v-4.13c0-0.76,0.27-1.41,0.81-1.95
			c0.54-0.54,1.19-0.81,1.95-0.81h0.23c0.76,0,1.41,0.27,1.95,0.81c0.54,0.54,0.81,1.19,0.81,1.95v4.13c0,0.76-0.27,1.41-0.81,1.95
			c-0.54,0.54-1.19,0.81-1.95,0.81H118.43z M117.52,95.72c0,0.25,0.09,0.47,0.27,0.65c0.18,0.18,0.4,0.27,0.65,0.27h0.23
			c0.26,0,0.47-0.09,0.65-0.27c0.18-0.18,0.27-0.39,0.27-0.65v-4.13c0-0.25-0.09-0.47-0.27-0.65c-0.18-0.18-0.4-0.27-0.65-0.27
			h-0.23c-0.25,0-0.47,0.09-0.65,0.27c-0.18,0.18-0.27,0.4-0.27,0.65V95.72z"/>
		<path class="st1" d="M124.58,97.94c0.12,0.22,0.31,0.4,0.59,0.54h-3.02c0.28-0.14,0.48-0.32,0.59-0.54v-8.57
			c-0.12-0.22-0.31-0.4-0.59-0.54h2.61l2.34,5.43v-4.89c-0.11-0.22-0.31-0.4-0.59-0.54h3.02c-0.28,0.14-0.48,0.32-0.59,0.54v8.57
			c0.12,0.22,0.31,0.4,0.59,0.54h-2.61l-2.35-5.43V97.94z"/>
		<path class="st1" d="M133.2,88.84c0.76,0,1.41,0.27,1.95,0.81c0.54,0.54,0.81,1.19,0.81,1.95v0.46h-1.83v-0.46
			c0-0.25-0.09-0.47-0.27-0.65c-0.18-0.18-0.4-0.27-0.65-0.27h-0.36c-0.22,0-0.41,0.08-0.56,0.23c-0.15,0.15-0.23,0.34-0.23,0.55
			c0,0.35,0.15,0.62,0.45,0.79l2.09,1.23c0.42,0.25,0.75,0.58,0.99,1c0.24,0.43,0.36,0.88,0.36,1.37c0,0.73-0.26,1.35-0.77,1.86
			c-0.51,0.51-1.13,0.77-1.85,0.77h-0.36c-0.76,0-1.41-0.27-1.95-0.81c-0.54-0.54-0.81-1.19-0.81-1.95v-0.46h1.84v0.46
			c0,0.25,0.09,0.47,0.27,0.65c0.18,0.18,0.4,0.27,0.65,0.27h0.36c0.22,0,0.4-0.08,0.55-0.23c0.16-0.15,0.24-0.34,0.24-0.56
			c0-0.35-0.15-0.61-0.46-0.79l-2.09-1.23c-0.42-0.25-0.75-0.58-1-1.01c-0.24-0.42-0.36-0.88-0.36-1.37c0-0.72,0.26-1.34,0.77-1.85
			c0.51-0.51,1.13-0.77,1.86-0.77H133.2z"/>
		<path class="st1" d="M145.97,92.74h0.92v1.83h-0.92v3.37c0.12,0.22,0.31,0.4,0.59,0.54h-3.58c-0.76,0-1.41-0.27-1.95-0.81
			c-0.54-0.54-0.81-1.19-0.81-1.95V95.5c0-0.7,0.23-1.31,0.7-1.84c-0.47-0.52-0.7-1.14-0.7-1.84v-0.23c0-0.76,0.27-1.41,0.81-1.95
			c0.54-0.54,1.19-0.81,1.95-0.81h2.07v2.4c-0.14-0.27-0.31-0.46-0.5-0.57h-1.57c-0.25,0-0.47,0.09-0.65,0.27
			c-0.18,0.18-0.27,0.4-0.27,0.65v0.23c0,0.26,0.09,0.47,0.27,0.65c0.18,0.18,0.4,0.27,0.65,0.27h1.15v-0.92h1.83V92.74z
			 M144.14,94.57h-1.15c-0.25,0-0.47,0.09-0.65,0.27c-0.18,0.18-0.27,0.4-0.27,0.65v0.23c0,0.25,0.09,0.47,0.27,0.65
			c0.18,0.18,0.4,0.27,0.65,0.27h1.15V94.57z"/>
		<path class="st1" d="M156.89,95.72c0,0.76-0.27,1.41-0.81,1.95c-0.54,0.54-1.19,0.81-1.95,0.81h-3.35
			c0.28-0.14,0.48-0.32,0.59-0.54v-8.57c-0.12-0.22-0.31-0.4-0.59-0.54h3.35c0.76,0,1.41,0.27,1.95,0.81
			c0.54,0.54,0.81,1.19,0.81,1.95V95.72z M153.21,96.64h0.92c0.25,0,0.47-0.09,0.65-0.27c0.18-0.18,0.27-0.39,0.27-0.65v-4.13
			c0-0.25-0.09-0.47-0.27-0.65c-0.18-0.18-0.4-0.27-0.65-0.27h-0.92V96.64z"/>
		<path class="st1" d="M157.68,98.48c0.28-0.14,0.48-0.32,0.59-0.54v-8.57c-0.12-0.22-0.31-0.4-0.59-0.54h3.35
			c0.76,0,1.41,0.27,1.95,0.81c0.54,0.54,0.81,1.19,0.81,1.95v0.23c0,0.57-0.16,1.09-0.48,1.56c-0.31,0.46-0.73,0.79-1.24,1
			l1.93,3.74c0.09,0.13,0.25,0.25,0.48,0.37h-2.82c0.16-0.08,0.27-0.16,0.35-0.23l-1.89-3.67v3.36c0.12,0.22,0.31,0.4,0.59,0.54
			H157.68z M160.1,92.74h0.92c0.25,0,0.47-0.09,0.65-0.27c0.18-0.18,0.27-0.4,0.27-0.65v-0.23c0-0.25-0.09-0.47-0.27-0.65
			c-0.18-0.18-0.4-0.27-0.65-0.27h-0.92V92.74z"/>
		<path class="st1" d="M171.56,88.84c-0.28,0.14-0.48,0.32-0.59,0.54v8.57c0.12,0.22,0.31,0.4,0.59,0.54h-3.02
			c0.27-0.14,0.47-0.32,0.59-0.54v-2.9h-1.84v2.9c0.12,0.22,0.31,0.4,0.59,0.54h-3.02c0.28-0.14,0.48-0.32,0.59-0.54v-6.35
			c0-0.76,0.27-1.41,0.81-1.95c0.54-0.54,1.19-0.81,1.95-0.81H171.56z M169.13,90.67h-0.92c-0.26,0-0.47,0.09-0.65,0.27
			c-0.18,0.18-0.27,0.4-0.27,0.65v1.61h1.84V90.67z"/>
		<path class="st1" d="M174.9,98.48c-0.76,0-1.41-0.27-1.95-0.81c-0.54-0.54-0.81-1.19-0.81-1.95v-4.13c0-0.76,0.27-1.41,0.81-1.95
			c0.54-0.54,1.19-0.81,1.95-0.81c0.76,0,1.41,0.27,1.95,0.81c0.54,0.54,0.81,1.19,0.81,1.95v0.46h-1.83v-0.46
			c0-0.25-0.09-0.47-0.27-0.65c-0.18-0.18-0.4-0.27-0.65-0.27c-0.25,0-0.47,0.09-0.65,0.27c-0.18,0.18-0.27,0.4-0.27,0.65v4.13
			c0,0.25,0.09,0.47,0.27,0.65c0.18,0.18,0.39,0.27,0.65,0.27h0.92v-2.07h-0.92v-1.83h3.35c-0.28,0.14-0.48,0.32-0.59,0.54v5.2
			H174.9z"/>
		<path class="st1" d="M181.41,98.48c-0.76,0-1.41-0.27-1.95-0.81c-0.54-0.54-0.81-1.19-0.81-1.95v-4.13c0-0.76,0.27-1.41,0.81-1.95
			c0.54-0.54,1.19-0.81,1.95-0.81h0.23c0.76,0,1.41,0.27,1.95,0.81c0.54,0.54,0.81,1.19,0.81,1.95v4.13c0,0.76-0.27,1.41-0.81,1.95
			c-0.54,0.54-1.19,0.81-1.95,0.81H181.41z M180.49,95.72c0,0.25,0.09,0.47,0.27,0.65c0.18,0.18,0.39,0.27,0.65,0.27h0.23
			c0.26,0,0.47-0.09,0.65-0.27c0.18-0.18,0.27-0.39,0.27-0.65v-4.13c0-0.25-0.09-0.47-0.27-0.65c-0.18-0.18-0.4-0.27-0.65-0.27
			h-0.23c-0.25,0-0.47,0.09-0.65,0.27c-0.18,0.18-0.27,0.4-0.27,0.65V95.72z"/>
		<path class="st1" d="M187.56,97.94c0.12,0.22,0.31,0.4,0.59,0.54h-3.02c0.28-0.14,0.48-0.32,0.59-0.54v-8.57
			c-0.12-0.22-0.31-0.4-0.59-0.54h2.61l2.34,5.43v-4.89c-0.11-0.22-0.31-0.4-0.59-0.54h3.02c-0.28,0.14-0.48,0.32-0.59,0.54v8.57
			c0.12,0.22,0.31,0.4,0.59,0.54h-2.61l-2.35-5.43V97.94z"/>
		<path class="st1" d="M196.18,88.84c0.76,0,1.41,0.27,1.95,0.81c0.54,0.54,0.81,1.19,0.81,1.95v0.46h-1.83v-0.46
			c0-0.25-0.09-0.47-0.27-0.65c-0.18-0.18-0.4-0.27-0.65-0.27h-0.36c-0.22,0-0.41,0.08-0.56,0.23c-0.15,0.15-0.23,0.34-0.23,0.55
			c0,0.35,0.15,0.62,0.45,0.79l2.09,1.23c0.42,0.25,0.75,0.58,0.99,1c0.24,0.43,0.36,0.88,0.36,1.37c0,0.73-0.26,1.35-0.77,1.86
			c-0.51,0.51-1.13,0.77-1.85,0.77h-0.36c-0.76,0-1.41-0.27-1.95-0.81c-0.54-0.54-0.81-1.19-0.81-1.95v-0.46h1.84v0.46
			c0,0.25,0.09,0.47,0.27,0.65c0.18,0.18,0.4,0.27,0.65,0.27h0.36c0.22,0,0.4-0.08,0.55-0.23c0.16-0.15,0.24-0.34,0.24-0.56
			c0-0.35-0.15-0.61-0.46-0.79l-2.09-1.23c-0.42-0.25-0.75-0.58-1-1.01c-0.24-0.42-0.36-0.88-0.36-1.37c0-0.72,0.26-1.34,0.77-1.85
			c0.51-0.51,1.13-0.77,1.86-0.77H196.18z"/>
	</g>
	<g>
		<g>
			<path class="st1" d="M213.22,92.2c-0.08,0.04-0.13,0.08-0.16,0.11l-0.96,1.92l0.96,1.92c0.03,0.03,0.09,0.07,0.16,0.11H212
				c0.08-0.04,0.14-0.08,0.18-0.12l-0.52-1.04l-0.52,1.04c0.04,0.04,0.1,0.08,0.18,0.12h-1.21c0.08-0.04,0.13-0.08,0.16-0.11
				l0.96-1.92l-0.96-1.92c-0.03-0.03-0.09-0.07-0.16-0.11h1.21c-0.08,0.04-0.14,0.08-0.18,0.12l0.52,1.04l0.52-1.04
				c-0.04-0.04-0.1-0.08-0.18-0.12H213.22z"/>
			<path class="st1" d="M216.99,96.25c-0.32,0-0.59-0.11-0.82-0.34s-0.34-0.5-0.34-0.82v-1.74c0-0.32,0.11-0.59,0.34-0.82
				c0.23-0.23,0.5-0.34,0.82-0.34h0.1c0.32,0,0.59,0.11,0.82,0.34c0.23,0.23,0.34,0.5,0.34,0.82v1.74c0,0.32-0.11,0.59-0.34,0.82
				s-0.5,0.34-0.82,0.34H216.99z M216.61,95.09c0,0.11,0.04,0.2,0.11,0.27c0.08,0.08,0.17,0.11,0.27,0.11h0.1
				c0.11,0,0.2-0.04,0.27-0.11c0.08-0.08,0.11-0.17,0.11-0.27v-1.74c0-0.11-0.04-0.2-0.11-0.27c-0.08-0.08-0.17-0.11-0.27-0.11h-0.1
				c-0.11,0-0.2,0.04-0.27,0.11c-0.08,0.08-0.11,0.17-0.11,0.27V95.09z"/>
			<path class="st1" d="M223.98,92.2c-0.08,0.04-0.13,0.08-0.16,0.11l-0.96,1.92l0.96,1.92c0.03,0.03,0.09,0.07,0.16,0.11h-1.21
				c0.08-0.04,0.14-0.08,0.18-0.12l-0.52-1.04l-0.52,1.04c0.04,0.04,0.09,0.08,0.18,0.12h-1.21c0.08-0.04,0.13-0.08,0.16-0.11
				l0.96-1.92l-0.96-1.92c-0.03-0.03-0.09-0.07-0.16-0.11h1.21c-0.08,0.04-0.14,0.08-0.18,0.12l0.52,1.04l0.52-1.04
				c-0.04-0.04-0.09-0.08-0.18-0.12H223.98z"/>
			<path class="st1" d="M227.75,96.25c-0.32,0-0.59-0.11-0.82-0.34s-0.34-0.5-0.34-0.82v-1.74c0-0.32,0.11-0.59,0.34-0.82
				c0.23-0.23,0.5-0.34,0.82-0.34h0.1c0.32,0,0.59,0.11,0.82,0.34c0.23,0.23,0.34,0.5,0.34,0.82v1.74c0,0.32-0.11,0.59-0.34,0.82
				s-0.5,0.34-0.82,0.34H227.75z M227.37,95.09c0,0.11,0.04,0.2,0.11,0.27c0.08,0.08,0.17,0.11,0.27,0.11h0.1
				c0.11,0,0.2-0.04,0.27-0.11c0.08-0.08,0.11-0.17,0.11-0.27v-1.74c0-0.11-0.04-0.2-0.11-0.27c-0.08-0.08-0.17-0.11-0.27-0.11h-0.1
				c-0.11,0-0.2,0.04-0.27,0.11c-0.08,0.08-0.11,0.17-0.11,0.27V95.09z"/>
			<path class="st1" d="M234.73,92.2c-0.08,0.04-0.13,0.08-0.16,0.11l-0.96,1.92l0.96,1.92c0.03,0.03,0.09,0.07,0.16,0.11h-1.21
				c0.08-0.04,0.14-0.08,0.18-0.12l-0.52-1.04l-0.52,1.04c0.04,0.04,0.1,0.08,0.18,0.12h-1.21c0.08-0.04,0.13-0.08,0.16-0.11
				l0.96-1.92l-0.96-1.92c-0.03-0.03-0.09-0.07-0.16-0.11h1.21c-0.08,0.04-0.14,0.08-0.18,0.12l0.52,1.04l0.52-1.04
				c-0.04-0.04-0.1-0.08-0.18-0.12H234.73z"/>
			<path class="st1" d="M238.51,96.25c-0.32,0-0.59-0.11-0.82-0.34c-0.23-0.23-0.34-0.5-0.34-0.82v-1.74c0-0.32,0.11-0.59,0.34-0.82
				c0.23-0.23,0.5-0.34,0.82-0.34h0.1c0.32,0,0.59,0.11,0.82,0.34c0.23,0.23,0.34,0.5,0.34,0.82v1.74c0,0.32-0.11,0.59-0.34,0.82
				s-0.5,0.34-0.82,0.34H238.51z M238.12,95.09c0,0.11,0.04,0.2,0.11,0.27c0.08,0.08,0.17,0.11,0.27,0.11h0.1
				c0.11,0,0.2-0.04,0.27-0.11c0.08-0.08,0.11-0.17,0.11-0.27v-1.74c0-0.11-0.04-0.2-0.11-0.27c-0.08-0.08-0.17-0.11-0.27-0.11h-0.1
				c-0.11,0-0.2,0.04-0.27,0.11c-0.08,0.08-0.11,0.17-0.11,0.27V95.09z"/>
			<path class="st1" d="M245.49,92.2c-0.08,0.04-0.13,0.08-0.16,0.11l-0.96,1.92l0.96,1.92c0.03,0.03,0.09,0.07,0.16,0.11h-1.21
				c0.08-0.04,0.14-0.08,0.18-0.12l-0.52-1.04l-0.52,1.04c0.04,0.04,0.1,0.08,0.18,0.12h-1.21c0.08-0.04,0.13-0.08,0.16-0.11
				l0.96-1.92l-0.96-1.92c-0.03-0.03-0.09-0.07-0.16-0.11h1.21c-0.08,0.04-0.14,0.08-0.18,0.12l0.52,1.04l0.52-1.04
				c-0.04-0.04-0.1-0.08-0.18-0.12H245.49z"/>
			<path class="st1" d="M249.27,96.25c-0.32,0-0.59-0.11-0.82-0.34s-0.34-0.5-0.34-0.82v-1.74c0-0.32,0.11-0.59,0.34-0.82
				c0.23-0.23,0.5-0.34,0.82-0.34h0.1c0.32,0,0.59,0.11,0.82,0.34c0.23,0.23,0.34,0.5,0.34,0.82v1.74c0,0.32-0.11,0.59-0.34,0.82
				c-0.23,0.23-0.5,0.34-0.82,0.34H249.27z M248.88,95.09c0,0.11,0.04,0.2,0.11,0.27c0.08,0.08,0.17,0.11,0.27,0.11h0.1
				c0.11,0,0.2-0.04,0.27-0.11c0.08-0.08,0.11-0.17,0.11-0.27v-1.74c0-0.11-0.04-0.2-0.11-0.27c-0.08-0.08-0.17-0.11-0.27-0.11h-0.1
				c-0.11,0-0.2,0.04-0.27,0.11c-0.08,0.08-0.11,0.17-0.11,0.27V95.09z"/>
			<path class="st1" d="M256.25,92.2c-0.08,0.04-0.13,0.08-0.16,0.11l-0.96,1.92l0.96,1.92c0.03,0.03,0.09,0.07,0.16,0.11h-1.21
				c0.08-0.04,0.14-0.08,0.18-0.12l-0.52-1.04l-0.52,1.04c0.04,0.04,0.1,0.08,0.18,0.12h-1.21c0.08-0.04,0.13-0.08,0.16-0.11
				l0.96-1.92l-0.96-1.92c-0.03-0.03-0.09-0.07-0.16-0.11h1.21c-0.08,0.04-0.14,0.08-0.18,0.12l0.52,1.04l0.52-1.04
				c-0.04-0.04-0.1-0.08-0.18-0.12H256.25z"/>
		</g>
		<g>
			<g>
				<g>
					<g>
						<g>
							<path class="st2" d="M266.74,95.56c0.03-0.17,0.01-0.56-0.07-0.49l-0.06,0.66L266.74,95.56z"/>
							<path class="st2" d="M266.14,94.34c-0.1,0.32-0.22,0.88-0.16,1.49c0.1-0.64,0.13-0.37,0.24-1.13
								c0.09-0.08,0.15,0.21,0.14,0.46c0.03-0.17,0.14,0.15,0.19-0.27c-0.12-0.51-0.26-0.53-0.41-0.11
								C266.1,94.63,266.14,94.46,266.14,94.34z"/>
							<path class="st2" d="M257.47,93.3l0.06,0.08C257.51,93.34,257.49,93.31,257.47,93.3z"/>
							<path class="st2" d="M252.09,92.94c0.04-0.02,0.06-0.08,0.06-0.14C252.12,92.84,252.08,92.88,252.09,92.94z"/>
							<path class="st2" d="M251.18,92.21c0.02,0.02,0.04,0.03,0.05,0.04C251.21,92.19,251.19,92.16,251.18,92.21z"/>
							<path class="st2" d="M257.47,93.3l-0.14-0.21C257.31,93.31,257.4,93.26,257.47,93.3z"/>
							<path class="st2" d="M264.95,95.93c0.03-0.03,0.06-0.09,0.08-0.17c-0.02,0.03-0.05,0.05-0.07,0.07
								C264.95,95.86,264.95,95.9,264.95,95.93z"/>
							<path class="st2" d="M259.84,92.77l0.04,0c0.01-0.08,0.02-0.17,0.04-0.27L259.84,92.77z"/>
							<path class="st2" d="M261.66,92.67c-0.04-0.02-0.06,0.54-0.07,0.78c0.02-0.23,0.05-0.34,0.09-0.39
								C261.68,92.96,261.67,92.83,261.66,92.67z"/>
							<path class="st2" d="M264.54,93.65l0.05-0.08C264.58,93.6,264.55,93.62,264.54,93.65z"/>
							<path class="st2" d="M258.54,92.65c0-0.08-0.01-0.16-0.02-0.2C258.52,92.51,258.53,92.58,258.54,92.65z"/>
							<path class="st2" d="M207.68,96.87c0-0.04,0-0.07,0-0.1C207.67,96.83,207.67,96.87,207.68,96.87z"/>
							<path class="st2" d="M205.57,94.09l0.03-0.03c0-0.11,0.01-0.21,0.01-0.31L205.57,94.09z"/>
							<path class="st2" d="M249.5,91.49c0,0.01,0,0.01,0.01,0.01C249.55,91.44,249.52,91.45,249.5,91.49z"/>
							<path class="st2" d="M234.08,91.91c0.17,0.5-0.28,0.65-0.02,1.2C234.03,92.89,234.3,92.23,234.08,91.91z"/>
							<path class="st2" d="M264.9,95.86c-0.02,0.01-0.05,0.01-0.07,0.01C264.86,95.88,264.88,95.88,264.9,95.86z"/>
							<path class="st2" d="M234.06,93.11C234.06,93.11,234.06,93.11,234.06,93.11l0.03,0.06
								C234.08,93.14,234.07,93.13,234.06,93.11z"/>
							<path class="st2" d="M245.63,91.83c0.01,0.1,0.02,0.17,0.04,0.25C245.67,92.02,245.66,91.95,245.63,91.83z"/>
							<path class="st2" d="M248.51,92.63l-0.07-0.08C248.47,92.6,248.49,92.62,248.51,92.63z"/>
							<path class="st2" d="M244.13,92.62c-0.04-0.04-0.05-0.12-0.1-0.04c0,0.03,0.01,0.05,0.02,0.07
								C244.06,92.57,244.09,92.53,244.13,92.62z"/>
							<path class="st2" d="M242.57,92.63c0.01,0.04,0.02,0.08,0.03,0.11c0.02-0.01,0.03-0.02,0.05-0.03L242.57,92.63z"/>
							<path class="st2" d="M212.42,96.6c-0.03-0.16-0.06-0.33-0.07-0.51C212.37,96.49,212.14,96.64,212.42,96.6z"/>
							<path class="st2" d="M264.95,95.62c-0.01,0.14-0.02,0.21-0.05,0.24c0.02-0.01,0.04-0.02,0.05-0.03
								C264.96,95.74,264.96,95.67,264.95,95.62z"/>
							<path class="st2" d="M244.07,97.06l-0.25-0.08C243.89,97.03,243.98,97.06,244.07,97.06z"/>
							<path class="st2" d="M223.59,96.52l-0.06,0.07C223.56,96.6,223.58,96.58,223.59,96.52z"/>
							<path class="st2" d="M243.09,97.06c-0.04-0.2-0.09-0.31-0.14-0.39c-0.01,0.04-0.02,0.08-0.03,0.15L243.09,97.06z"/>
							<path class="st2" d="M212.34,96.09C212.34,96.09,212.34,96.09,212.34,96.09C212.34,96.09,212.34,96.09,212.34,96.09z"/>
							<path class="st2" d="M210.71,97.42c0.24,0.02,0.11-0.72,0.16-1.15c0.28-0.21,0.13,0.54,0.23,0.92
								c0.18-0.2,0.31-0.87,0.44-0.85c0.01,0.12,0.04,0.17,0.01,0.32c0.19-0.59,0.55-0.03,0.77-0.77c0.02,0.07,0.02,0.13,0.03,0.18
								c-0.04-0.37-0.04-0.75-0.03-1.01c0.11-0.01,0.2-0.47,0.24,0.02c-0.06-0.01-0.07,0.18-0.1,0.33l0.11-0.21
								c0.1,0.69-0.15,0.24-0.15,0.75c0.22-0.23,0.47-0.8,0.63-0.6c0.03,0.68-0.39,0.23-0.17,0.83l-0.26-0.26
								c0.2,1.07-0.16-0.07,0.02,1.07c0.34,0.2,0.38-0.35,0.71-0.15c0.08-0.38-0.03-0.56,0.05-0.94c0.48-0.68,0.38,1.71,0.73,0.8
								c0.09-0.45,0.13-1.31,0.38-0.86l-0.09,0.77c0.33,0.08,0.19-1.1,0.53-0.59c-0.06,0.3-0.26,0.25-0.21,0.35
								c0.22,0.61,0.16-0.44,0.33-0.44l0.04,0.68c0.35-0.11,0.73-0.6,1.11-0.72c-0.02,0.2-0.09,0.42,0,0.62
								c0.49-0.34,1.04,0.08,1.5,0.49l0.18-0.59c0.04,0.01,0.08,0.27,0.03,0.38c0.18,0.22,0.01-0.37,0.1-0.6
								c0.1-0.04,0.14,0.34,0.07,0.51c0.32-0.5,0.92-1.07,1.26-0.44l-0.07,0.17c0.26,0.24,0.3-1.2,0.54-0.66l-0.05,0.1
								c0.57,0.25,1.21-0.28,1.64,0.6c0.08-0.85,0.57,0.38,0.6-0.8c0.33,0.58,0.23,0.8,0.69,1.19c0.12,0.05,0.18-0.74,0.34-0.86
								l0,0.62l0.21-0.65l0.11,0.74l0.14-0.16c-0.06-0.04-0.12-0.28-0.11-0.45c0.22-0.28,0.54,0.43,0.55,0.74l0.53-0.52
								c-0.01,0.25-0.1,0.33-0.17,0.49c0.28-0.63,0.05,0.65,0.31,0.07c-0.03-0.14,0.02-0.37,0.02-0.49
								c0.13,0.37,0.42,0.38,0.64,0.22l-0.04,0.42c0.39,0.11,0.82-0.2,1.26-0.2c-0.16-0.2-0.12-0.93,0.01-1.01l0.05,0.65
								c0.08-0.4-0.13-0.25,0.04-0.74c0.16,0.08,0.11,0.74,0.02,0.95l0.2-0.23c0.01,0.19-0.04,0.3-0.05,0.54
								c0.08-0.4,0.34,0.65,0.46-0.05l0.01,0.19c0.44,0.01,0.64-0.22,1-0.25c0.01-0.56,0.15-0.44,0.25-0.89
								c0.26,0.18,0.55,0.62,0.87,0.57c0.22-0.28,0.07-0.48,0.17-0.81c0.02,0.51,0.33,0.46,0.17,0.83c0.38-0.08,0.49-0.1,0.97-0.52
								c-0.05-0.21-0.11-0.3-0.08-0.48c0.09-0.08,0.2,0.21,0.19,0.46l-0.02,0.05c0.54-0.77,1.25,1.49,1.67,0.43l-0.02,0.05
								l0.45-0.56c0.2,0.09-0.12,0.38,0.03,0.7c0.48-0.86,0.76,0.12,1.16-0.45c0.31,1.51,1.09-0.11,1.5,0.86l-0.02-0.36
								c0.11-0.35,0.13,0.2,0.21,0.29c-0.01-0.28-0.12-0.32-0.05-0.51c0.91-0.43,1.87,0.52,2.8,0.84c0.34,0.1,0.19-1.84,0.62-0.99
								l-0.12,0.66c0.69-0.79,1.4,0.03,2.07-0.64c-0.04,0.15-0.04,0.35-0.11,0.35c0.14,0.48,0.52,0.02,0.53-0.37
								c0.1,0.04,0.02,0.35,0.09,0.55c0.14,0.28,0.36-0.61,0.43-0.14c0.01,0.08-0.04,0.16-0.07,0.19c0.09-0.23,0.43,0.06,0.34-0.49
								c0.25,0.26,0.48-0.25,0.68,0.08c0.13-0.62,0.43,0.3,0.47-0.58c-0.02,0.9,0.44,0.73,0.6,0.3c-0.05,0.27,0.14,0.28,0.08,0.66
								c0.18-0.01,0.35-0.18,0.32-0.65c0.33,1.08,0.67-0.87,0.86,0.52c0.54-0.49,1.04-0.82,1.52-1.03c-0.02,0.9-0.54,0.09-0.52,1.04
								c0.46-0.37,0.73-1.15,1.18-0.93c0.12,0.12-0.07,0.39-0.11,0.55c0.46-0.37,0.89,0.08,1.3-0.41c0,0.08-0.05,0.18-0.09,0.24
								c0.08-0.03,0.19,0.13,0.18-0.28l-0.08,0.11c-0.13-0.6,0.32-1.24,0.33-1.56c-0.14,1.18,0.4,0.3,0.19,1.78
								c0.05-0.08,0.12-0.27,0.11-0.55c0.08,0.08,0.1,0.24,0.02,0.55c0.29-0.22,0.19-0.66,0.45-0.65c0,0.2-0.05,0.28-0.08,0.51
								c0.13-0.39,0.27-0.77,0.49-0.61c-0.01,0.12,0.01,0.28-0.05,0.27c0.38-0.06,0.65-1.03,1.06-0.66
								c-0.12,0.86,0.14,0.28,0.16,1.03l0.22-0.22l-0.09-0.36c0.2,0.01,0.37-0.53,0.54-0.29l-0.15,0.31l0.37-0.14l-0.21-0.28
								c0.2-0.38-0.02-0.94,0.24-0.74c-0.05,0.08,0.2,0.01,0.3,0.45c0,0,0,0,0,0c0.1-0.24,0.2-0.49,0.34-0.3
								c0.04,0.24-0.03,0.83-0.01,0.98c0.1-0.62,0.46-0.17,0.58-0.84c-0.04,0.16-0.04,0.55-0.03,0.63l0.08-0.51
								c0.09,0.16,0.1,0.24,0.09,0.55c0.27,0.09-0.09-0.95,0.24-0.54c-0.03,0.04-0.01,0.12-0.07,0.19c0.33,0.21,0.63-0.32,0.93-0.07
								c0.09,0.75-0.26,0.18-0.16,0.82c0.43-0.14,0.89-0.9,1.31-0.72l-0.08-0.08c0.06-1.06,0.31,0.52,0.52,0.02
								c-0.05,0.08-0.07,0.59-0.05,0.47c0.29,0.17,0.59-0.26,1.02-0.59l-0.05,0.27c0.17,0.24,0.44,0.14,0.63,0.26
								c0.05-0.27,0.16-0.23,0.1-0.62c0.56,1.55,1.07-0.83,1.57,0.46c-0.06,0-0.14,0.24-0.09,0.24l0.42-0.25
								c-0.03-0.46-0.06-0.28-0.14-0.64c0.05-0.27,0.17-0.49,0.28-0.49c-0.19,0.31,0,0.74,0.08,1c-0.01-0.14,0.01-0.3,0.01-0.44
								c0.22,0.82,0.04-0.93,0.34-0.38l-0.02,0.24c0.11-0.12,0.22-0.44,0.34-0.38c0.05,0.53-0.12,0.25-0.13,0.69
								c0.17-0.03,0.34-1.01,0.49-0.48c-0.07,0.15-0.18,0.15-0.25,0.3c0.17,0.63,0.19,0.47,0.31,0.57l-0.01-0.01l0.29,0.28
								l-0.07-0.17c0.21-1.39,0.44-0.25,0.73-1.17c-0.28,0.86-0.05,0.5-0.07,1.11c0.07,0.17,0.19,0.36,0.15,0.53
								c0.14-0.49,0.23,0.39,0.42-0.33c0.01,0.2,0.15,0.02,0.12,0.51c0.18-0.15-0.04-0.34-0.03-0.58c0.27-0.67,0.64,0.81,1.04-0.11
								c0.34-0.38,0.4-1.03,0.72-1.36c0.11,0.31-0.09,0.71-0.09,0.71c0.17,0.29,0.3,0.23,0.46,0.01c-0.03,0.17,0,0.31,0.05,0.53
								c0.13-0.05,0.09-0.71,0.26-0.42c-0.03,0.22-0.07,0.57-0.13,0.78c0.15-0.18,0.3-0.54,0.46-0.72c0.04,0.34-0.1,0.52-0.15,0.74
								c0.18-0.15,0.46-0.31,0.52-0.85l-0.11-0.19c0.06-0.03,0.03,0.46-0.01,0.56c-0.15,0.42-0.22-0.19-0.23-0.38l0.11-0.12
								c-0.12-1.14-0.45,0.18-0.68,0.12l0.09-0.83l-0.23,0.69c-0.05-0.22-0.08-0.68,0.03-0.81c-0.16-0.41-0.14,0.3-0.28-0.16
								c-0.02-0.07-0.01-0.11,0.01-0.14l-0.16,0.25c0.03-0.17-0.03-0.59,0.07-0.47c-0.29-0.48-0.46,0.62-0.57-0.01l0.02-0.05
								c-0.4,0.28-0.04,0.61-0.34,1.33l-0.2-1.51l-0.04,0.61c-0.04-0.02-0.12-0.07-0.11-0.31c-0.15,0.42,0.03,0.27-0.06,0.66
								c-0.2-0.56-0.54,0.26-0.59-0.71c-0.07,0.46,0.19,0.36-0.02,0.68c-0.06-1.05-0.24,0.18-0.42-0.3
								c0.06-0.54,0.23-0.25,0.05-0.74c-0.11,0.91-0.35-0.2-0.5-0.03c-0.01,0.73-0.33,0.3-0.58,0.55c0.02-0.24-0.48-0.4-0.72-0.66
								l0.01-0.12c-0.05,0.73-0.29,0.6-0.47,0.75c0.01-0.44,0.04-0.61,0.14-0.81l-0.17,0c-0.04,0.24-0.09,0.36-0.2,0.44l0.04-0.55
								c-0.22,0.03-0.45,0.65-0.73,0.28c-0.02,0.51,0.23,1.43-0.08,1.77c-0.01-0.28-0.02-0.75,0.06-0.86
								c-0.03,0.04-0.09,0.23-0.14,0.11l0.12-0.47c-0.13-0.2-0.07,0.39-0.17,0.35c0-0.4-0.08-0.28-0.06-0.6
								c0.03-0.04,0.09,0.16,0.13,0.01c-0.12-0.07-0.26-0.3-0.31-0.6c0.01,0.22,0,0.53-0.09,0.58c-0.22,0.03-0.08-0.48-0.21-0.68
								c-0.05,0.27-0.2-0.01-0.2,0.58c-0.07,0-0.08-0.28-0.1-0.44c-0.12,0.26-0.54,0.07-0.41,0.7l0.03,0.04
								c-0.01,0.01-0.01,0.01-0.02,0.03c0,0,0,0,0,0h0c-0.38,0.59-0.78-0.33-1.16-0.08l0-0.2c-0.22,0.23-0.5,0.13-0.66,0.56
								c-0.07,0-0.16-0.36-0.13-0.6c-0.17,0.15-0.19,0.37-0.44,0.04c0.17-0.34-0.06-0.31,0.18-0.25c-0.22-0.17-0.27-0.49-0.51,0.05
								c0.08-0.51-0.17-0.64-0.27-0.49l0.16,0.36c-0.12,0.07-0.22,0.03-0.33-0.01l0.06-0.67c-0.45-0.81-0.82,1.38-1.17,0.02
								c-0.12,0.47,0.25,0.33,0.14,0.87c-0.21-0.09-0.43-1.04-0.49-1.05c-0.29-0.37-0.27,0.97-0.57,0.72
								c0.04,0.24,0.07,0.87-0.15,1.09c-0.21-0.09-0.26-1-0.13-1.19c0.05-0.02,0.07,0.06,0.07,0.14c0.07-0.09,0.16-0.19,0.07-0.45
								l-0.03,0.24c-0.1-0.24-0.39-0.22-0.32-0.61c-0.16,0.23-0.07,0.39,0.05,0.51c-0.27-0.34-0.42-0.01-0.7-0.24
								c0.04,0.13,0.08,0.41,0.04,0.41c-0.41-0.29-0.18,0.45-0.45,0.55c-0.16-0.36,0.06-0.86-0.22-0.56
								c-0.17-0.25-0.04-0.63,0.03-0.82c-0.25,0.46-0.47-0.3-0.61-0.38l0.13-0.19c-0.08,0.11-0.14,0.11-0.21,0.11l0.08,0.47
								c-0.08-0.08-0.14-0.08-0.14-0.28c-0.08,0.31,0.06,0.79-0.1,1.21c-0.1-0.24-0.32,0.26-0.35-0.37
								c0.33,0.21-0.04-0.63,0.24-0.73c-0.05,0.08-0.12,0.07-0.2-0.01c-0.01-0.07,0.01-0.13,0.03-0.17
								c-0.31-0.56-0.14,0.71-0.47,0.7c0.04-0.36-0.08-0.67-0.13-0.6c0.13,0.01,0.06,0.59-0.06,0.86c-0.21-0.28-0.23,0.21-0.33,0.17
								l0.12,0.13c-0.04,0.35-0.15,0.31-0.29,0.42c-0.01-0.28,0.13-0.19,0.08-0.31c-0.16,0.62-0.36-0.65-0.59-0.23
								c-0.1-0.24-0.01-0.67-0.1-0.83c-0.25,0.46-0.27-0.49-0.54-0.11c0.08,0.48,0.09,0.36-0.1,0.83l0.43-0.34l-0.28,0.69
								c0.13,0.01,0.28-0.3,0.35-0.22c-0.13,0.39-0.12,0.27-0.06,0.67c-0.18-0.72-0.36,0.42-0.56-0.07l0.01-1.18
								c-0.31-0.53-0.55,0.61-0.96,0.31l0.13,0.21c-0.05,0.47-0.25,0.07-0.38,0.26c0.01-0.4-0.07-0.54-0.13-0.78
								c0.01,0.29-0.3-0.03-0.33,0.76l-0.18-0.52c-0.33-0.21-0.37,1.12-0.69,0.99c0.09-0.43-0.05-0.71,0.16-1.02
								c-0.1,0-0.2-0.08-0.2,0.2c-0.06-0.25-0.29,0.53-0.39,0.16c-0.04,0.17-0.06,0.59-0.18,0.55c-0.01-0.08,0-0.19,0-0.19
								c0,0.19-0.18,0.27-0.08,0.7c-0.32-1.23-0.9,0.09-1.18-0.97c-0.23,0.13-0.5,0.26-0.71,0.29c0.01-0.12,0-0.2,0.04-0.16
								c-0.29-0.37-0.18,1.13-0.5,0.72c-0.17-0.64,0.17-0.35,0.07-0.59c-0.05-1.3-0.39,0.18-0.61-0.58l0.05-0.08
								c-0.17-0.44-0.41,0.49-0.68,0.4c0,0,0.01-0.11,0-0.2c-0.19,0.66-0.54,0.88-0.81,1.07c0.08-0.51,0.12-0.27,0.07-0.79
								c-0.12,0.07,0.03,0.83-0.2,0.97c-0.08-0.28-0.25-0.52-0.27-1.07l0.22-0.03c-0.11-0.71-0.29,0.02-0.4-0.1l0.01-0.31
								c-0.34,0.1-0.35,0.89-0.71,0.83l0.04,0.24c-0.2,0.78-0.17-0.44-0.37,0.14l-0.06-0.79c-0.13,0.19-0.46,0.76-0.7,0.91
								c0.13-0.59,0.41-0.88,0.58-1.23c-0.13-0.01-0.44,0.06-0.51,0.45c0.05-0.08,0.12-0.27,0.17-0.15
								c-0.16,0.62-0.37,0.93-0.63,0.91c0.05-1.53-0.68-0.39-0.87-1.57c-0.46,0.57-0.92-0.24-1.45-0.15
								c0.19,1.19-0.16,0.03-0.12,1.26c-0.13,0.08-0.17,0.06-0.18-0.02l-0.38-0.73c-0.09-0.36,0.12-0.27,0.11-0.54
								c-0.27-0.09-0.12-0.52-0.3-0.84c0.04,0.44-0.1,0.63-0.25,0.46l0.22,0.56c-0.38,0.65-0.33-1.03-0.72-0.38l0.12-0.38
								c-0.2,0.23-0.73-0.01-0.93,0.97c-0.04-0.14-0.08-0.48,0.01-0.56c-0.47-0.15-1.05,1.05-1.42,0.44l0.04-0.3
								c-0.09,0.09-0.15,0.56-0.26,0.26c0.01-0.12,0.04-0.3-0.01-0.32c-0.05,0.1-0.23,0.52-0.35,0.35l0.1-0.34
								c-0.46-0.39-0.71,0.82-1.1,1.02c0-0.88-0.36-1.17-0.54-1.31l0.01-0.12c-0.54-0.11-0.91,0.73-1.41,1.08
								c-0.31-0.96-1.05-0.4-1.54-0.94c0.08,0.16-0.01,0.69-0.1,0.77c-0.12-0.18-0.32,0.61-0.3-0.2l0.04,0.02
								c-0.09-0.79-0.33-0.58-0.51-0.6l-0.03,1.06c-0.49-1.54-1.28,0.56-1.55-0.81c-0.12,0.26-0.26,0.26-0.38,0.52l0.01-0.57
								c-0.33-0.14-0.49-0.22-0.9-0.08l0.08-0.4c-0.23-0.04-0.29,1.63-0.5,1.67l-0.06-0.85c-0.4,0.01-0.8-0.73-1.19,0.04
								c0.01-0.12,0.02-0.37,0.08-0.4c-0.19-0.02-0.72-0.57-0.66,0.59c0-0.76-0.41-0.07-0.63,0.26l0.03-0.56
								c-0.18,0.71-0.19,0.91-0.44,1.1c-0.06-0.07-0.05-0.45,0.03-0.3c-0.2-0.29-0.16,0.53-0.4,0.23l0.09-0.36
								c-0.21-0.04-0.19,0.15-0.3,0.56c-0.13,0.22-0.39-0.14-0.42-0.64c-0.03,0.31-0.14,0.72-0.26,0.57
								c-0.02-0.19,0.03-0.31,0.05-0.37c-0.34-0.38-0.51,0.65-0.75,0.1c0-0.18-0.02-0.28-0.04-0.33c0.27,0.01,0.49,0.04,0.47,0.08
								c0-0.51-0.22-0.6-0.05-1.31c-0.18,0.39-0.48,1.23-0.7,0.99c-0.01-0.05-0.02-0.1-0.03-0.18l0.02-0.06
								c-0.05-0.05-0.09,0-0.14,0.08c-0.07-0.08-0.11-0.15-0.18-0.15c-0.03-0.42-0.25-0.23-0.36-0.25c0.01,0.56-0.14,0.47,0,0.94
								c-0.02-0.04,0.02-0.07,0.09-0.09c0.02-0.02,0.04-0.03,0.05-0.06c0,0.02,0,0.03-0.01,0.05c0.07-0.02,0.17-0.03,0.27-0.04
								c-0.09,0.29-0.18,0.53-0.3,0.21c-0.06,0.36-0.12,0.73-0.15,0.91c-0.15-0.78-0.44-1.21-0.48-1.69c-0.34,0.32-0.79,0.21-1,1.26
								c-0.1,0.14-0.11-0.3-0.15-0.47c0.06-0.11,0.12-0.09,0.15-0.24c-0.19,0.27-0.57,0.11-0.61,0.84c-0.24-0.33,0.14-0.68-0.2-0.56
								l0.04-0.23c-0.65-1.18-1.06,1.88-1.78,0.37c0.05,0.09,0.08,0.14,0.09,0.26c-0.82-0.67-1.7,0.63-2.51-0.43
								c-0.23-0.21-0.26,0.26-0.4,0.62l-0.05-0.6l-0.24,0.7c-0.34,0.51-0.59-1.48-1.02-0.52l0.06,0.41
								c-0.16-0.08-0.49,0.24-0.47-0.23c-0.02,0.07-0.05,0.42-0.11,0.21l0-0.32l-0.38,0.54c-0.3-0.23,0.05-1.25-0.39-1.32
								c-0.16,0.12-0.46,0.92-0.4,1.13c0.06,0.02,0.17,0.2,0.17,0.51l-0.15,0.16c-0.03,0.93-0.14,1.88,0.22,2.54l0.25-0.57
								l0.08,0.45l-0.21,0.03c0.12,0.42,0.2,0.05,0.28-0.21c0.02,0.24,0.06,0.41,0.11,0.5l0.25-0.89c0.03,0.36-0.11,0.72,0.05,0.92
								c0.12-0.41-0.11-0.82,0.08-1.09c0.12,0.42,0.09,0.77,0.23,0.41c0.02,0.24-0.01,0.39-0.07,0.5c0.13-0.29,0.33-0.12,0.4-0.62
								c0.13,0.52,0.42-0.14,0.41,0.75c0.04-0.21,0.22-0.69,0.34-0.73c-0.21,1.06,0.43,0.06,0.38,1.19
								c0.16-0.95,0.56-0.42,0.84-0.95c-0.02,0.08-0.05,0.23-0.07,0.18c0.16,0.08,0.2,0.36,0.3,0.54c0.02-0.78,0.26-0.96,0.39-1.45
								c0.19,0.76-0.12,0.92-0.06,1.65c-0.01-0.64,0.33-0.63,0.27-1.16c0.15,0.47,0.13,0.23,0.2,0.88c0.03-0.98,0.14-0.17,0.26-0.77
								c0.21,0.48,0.05,0.92,0.29,0.62C210.92,97.08,210.71,97.42,210.71,97.42z M216.22,95.73c0,0.01,0,0.01,0,0.01
								c-0.05,0.01-0.09,0.02-0.11,0.03C216.13,95.76,216.16,95.75,216.22,95.73z M216.68,95.72c-0.06-0.02-0.13-0.03-0.2-0.02
								c-0.02-0.19,0-0.39,0.05-0.38C216.51,95.44,216.61,95.56,216.68,95.72z M215.7,91.82c0.07-0.08,0.1,0.03,0.11,0.15
								c-0.03,0.01-0.08,0.03-0.13,0.07c0,0.02-0.01,0.04-0.01,0.07C215.68,92,215.69,91.9,215.7,91.82z"/>
							<path class="st2" d="M215.57,92.56c-0.01,0.01-0.02,0.04-0.03,0.04c0.01,0.05,0.03,0.09,0.04,0.13
								c0.01-0.06,0.02-0.12,0.03-0.18C215.6,92.56,215.59,92.56,215.57,92.56z"/>
							<path class="st2" d="M257.53,93.39l-0.01-0.01c0.01,0.02,0.02,0.04,0.02,0.08C257.54,93.43,257.54,93.42,257.53,93.39z"/>
							<polygon class="st2" points="223.08,96.8 223.07,96.65 223.03,96.78 							"/>
							<path class="st2" d="M260.08,95.32c0,0.05,0.01,0.1,0.03,0.14C260.12,95.43,260.1,95.38,260.08,95.32z"/>
							<path class="st2" d="M261.18,95.45l0.16,0.2C261.27,95.54,261.22,95.48,261.18,95.45z"/>
							<path class="st2" d="M262.03,95.73c0.01-0.1,0.01-0.17,0.02-0.24c0,0,0,0,0,0L262.03,95.73z"/>
							<path class="st2" d="M248.57,96.39c-0.01,0-0.02,0.01-0.03,0.03C248.46,96.52,248.51,96.48,248.57,96.39z"/>
							<path class="st2" d="M252.58,95.08c-0.04,0.1-0.08,0.2-0.13,0.27C252.52,95.39,252.57,95.4,252.58,95.08z"/>
							<path class="st2" d="M244.09,97.07C244.1,97.06,244.09,97.06,244.09,97.07c-0.01-0.01-0.02-0.01-0.03-0.01L244.09,97.07z"/>
							<path class="st2" d="M252.26,95.33c0.07,0.11,0.13,0.09,0.19,0.01C252.39,95.3,252.32,95.25,252.26,95.33z"/>
							<path class="st2" d="M265.7,95.98l0.04,0.02c0-0.04,0-0.07,0-0.09L265.7,95.98z"/>
							<path class="st2" d="M265.75,95.92l0.05-0.07C265.77,95.85,265.75,95.86,265.75,95.92z"/>
							<path class="st2" d="M265.89,95.71l-0.1,0.14C265.83,95.85,265.87,95.87,265.89,95.71z"/>
							<path class="st2" d="M264.58,95.72l-0.01,0.2C264.57,95.89,264.58,95.82,264.58,95.72z"/>
							<path class="st2" d="M264.24,95.78c0.08,0.05,0.2,0.43,0.32,0.31l0.01-0.16C264.51,96.23,264.32,95.44,264.24,95.78z"/>
							<path class="st2" d="M262.82,93.26l0.29,0.16c-0.05-0.22-0.12-0.51,0.01-0.56C262.76,92.22,263.19,93.35,262.82,93.26z"/>
							<path class="st2" d="M261.93,92.95c0.15-0.1,0-0.32,0.01-0.44C261.84,92.71,261.82,92.76,261.93,92.95z"/>
							<path class="st2" d="M255.54,92.95l0.02-0.51C255.43,92.51,255.55,92.63,255.54,92.95z"/>
							<polygon class="st2" points="254.31,95.59 254.43,95.91 254.48,95.44 							"/>
							<polygon class="st2" points="253.59,91.95 253.64,91.87 253.45,92.06 							"/>
							<path class="st2" d="M242.85,92.13l0.04,0.63C242.97,92.65,242.98,91.94,242.85,92.13z"/>
							<path class="st2" d="M238.21,92.77c-0.05-0.31-0.18-0.52-0.26-0.21C238.06,92.61,238.16,92.85,238.21,92.77z"/>
							<polygon class="st2" points="224.31,91.74 224.4,91.53 224.22,91.71 							"/>
						</g>
					</g>
				</g>
			</g>
		</g>
	</g>
	<g>
		<g>
			<path class="st1" d="M78.14,96.45c0.08-0.04,0.13-0.08,0.16-0.11l0.96-1.92l-0.96-1.92c-0.03-0.03-0.09-0.07-0.16-0.11h1.21
				c-0.08,0.04-0.14,0.08-0.18,0.12l0.52,1.04l0.52-1.04c-0.04-0.04-0.1-0.08-0.18-0.12h1.21c-0.08,0.04-0.13,0.08-0.16,0.11
				l-0.96,1.92l0.96,1.92c0.03,0.03,0.09,0.07,0.16,0.11h-1.21c0.08-0.04,0.14-0.08,0.18-0.12l-0.52-1.04l-0.52,1.04
				c0.04,0.04,0.1,0.08,0.18,0.12H78.14z"/>
			<path class="st1" d="M74.36,92.4c0.32,0,0.59,0.11,0.82,0.34c0.23,0.23,0.34,0.5,0.34,0.82v1.74c0,0.32-0.11,0.59-0.34,0.82
				c-0.23,0.23-0.5,0.34-0.82,0.34h-0.1c-0.32,0-0.59-0.11-0.82-0.34c-0.23-0.23-0.34-0.5-0.34-0.82v-1.74
				c0-0.32,0.11-0.59,0.34-0.82c0.23-0.23,0.5-0.34,0.82-0.34H74.36z M74.75,93.55c0-0.11-0.04-0.2-0.11-0.27
				c-0.08-0.08-0.17-0.11-0.27-0.11h-0.1c-0.11,0-0.2,0.04-0.27,0.11c-0.08,0.08-0.11,0.17-0.11,0.27v1.74
				c0,0.11,0.04,0.2,0.11,0.27c0.08,0.08,0.17,0.11,0.27,0.11h0.1c0.11,0,0.2-0.04,0.27-0.11c0.08-0.08,0.11-0.17,0.11-0.27V93.55z"
				/>
			<path class="st1" d="M67.38,96.45c0.08-0.04,0.13-0.08,0.16-0.11l0.96-1.92l-0.96-1.92c-0.03-0.03-0.09-0.07-0.16-0.11h1.21
				c-0.08,0.04-0.14,0.08-0.18,0.12l0.52,1.04l0.52-1.04c-0.04-0.04-0.1-0.08-0.18-0.12h1.21c-0.08,0.04-0.13,0.08-0.16,0.11
				l-0.96,1.92l0.96,1.92c0.03,0.03,0.09,0.07,0.16,0.11h-1.21c0.08-0.04,0.14-0.08,0.18-0.12l-0.52-1.04l-0.52,1.04
				c0.04,0.04,0.1,0.08,0.18,0.12H67.38z"/>
			<path class="st1" d="M63.6,92.4c0.32,0,0.59,0.11,0.82,0.34c0.23,0.23,0.34,0.5,0.34,0.82v1.74c0,0.32-0.11,0.59-0.34,0.82
				c-0.23,0.23-0.5,0.34-0.82,0.34h-0.1c-0.32,0-0.59-0.11-0.82-0.34c-0.23-0.23-0.34-0.5-0.34-0.82v-1.74
				c0-0.32,0.11-0.59,0.34-0.82c0.23-0.23,0.5-0.34,0.82-0.34H63.6z M63.99,93.55c0-0.11-0.04-0.2-0.11-0.27
				c-0.08-0.08-0.17-0.11-0.27-0.11h-0.1c-0.11,0-0.2,0.04-0.27,0.11c-0.08,0.08-0.11,0.17-0.11,0.27v1.74
				c0,0.11,0.04,0.2,0.11,0.27c0.08,0.08,0.17,0.11,0.27,0.11h0.1c0.11,0,0.2-0.04,0.27-0.11c0.08-0.08,0.11-0.17,0.11-0.27V93.55z"
				/>
			<path class="st1" d="M56.62,96.45c0.08-0.04,0.13-0.08,0.16-0.11l0.96-1.92l-0.96-1.92c-0.03-0.03-0.09-0.07-0.16-0.11h1.21
				c-0.08,0.04-0.14,0.08-0.18,0.12l0.52,1.04l0.52-1.04c-0.04-0.04-0.1-0.08-0.18-0.12h1.21c-0.08,0.04-0.13,0.08-0.16,0.11
				l-0.96,1.92l0.96,1.92c0.03,0.03,0.09,0.07,0.16,0.11h-1.21c0.08-0.04,0.14-0.08,0.18-0.12l-0.52-1.04l-0.52,1.04
				c0.04,0.04,0.1,0.08,0.18,0.12H56.62z"/>
			<path class="st1" d="M52.85,92.4c0.32,0,0.59,0.11,0.82,0.34c0.23,0.23,0.34,0.5,0.34,0.82v1.74c0,0.32-0.11,0.59-0.34,0.82
				c-0.23,0.23-0.5,0.34-0.82,0.34h-0.1c-0.32,0-0.59-0.11-0.82-0.34c-0.23-0.23-0.34-0.5-0.34-0.82v-1.74
				c0-0.32,0.11-0.59,0.34-0.82c0.23-0.23,0.5-0.34,0.82-0.34H52.85z M53.23,93.55c0-0.11-0.04-0.2-0.11-0.27
				c-0.08-0.08-0.17-0.11-0.27-0.11h-0.1c-0.11,0-0.2,0.04-0.27,0.11c-0.08,0.08-0.11,0.17-0.11,0.27v1.74
				c0,0.11,0.04,0.2,0.11,0.27c0.08,0.08,0.17,0.11,0.27,0.11h0.1c0.11,0,0.2-0.04,0.27-0.11c0.08-0.08,0.11-0.17,0.11-0.27V93.55z"
				/>
			<path class="st1" d="M45.86,96.45c0.08-0.04,0.13-0.08,0.16-0.11l0.96-1.92l-0.96-1.92c-0.03-0.03-0.09-0.07-0.16-0.11h1.21
				c-0.08,0.04-0.14,0.08-0.18,0.12l0.52,1.04l0.52-1.04c-0.04-0.04-0.1-0.08-0.18-0.12h1.21c-0.08,0.04-0.13,0.08-0.16,0.11
				l-0.96,1.92l0.96,1.92c0.03,0.03,0.09,0.07,0.16,0.11h-1.21c0.08-0.04,0.14-0.08,0.18-0.12l-0.52-1.04l-0.52,1.04
				c0.04,0.04,0.1,0.08,0.18,0.12H45.86z"/>
			<path class="st1" d="M42.09,92.4c0.32,0,0.59,0.11,0.82,0.34c0.23,0.23,0.34,0.5,0.34,0.82v1.74c0,0.32-0.11,0.59-0.34,0.82
				c-0.23,0.23-0.5,0.34-0.82,0.34h-0.1c-0.32,0-0.59-0.11-0.82-0.34c-0.23-0.23-0.34-0.5-0.34-0.82v-1.74
				c0-0.32,0.11-0.59,0.34-0.82c0.23-0.23,0.5-0.34,0.82-0.34H42.09z M42.47,93.55c0-0.11-0.04-0.2-0.11-0.27
				c-0.08-0.08-0.17-0.11-0.27-0.11h-0.1c-0.11,0-0.2,0.04-0.27,0.11c-0.08,0.08-0.11,0.17-0.11,0.27v1.74
				c0,0.11,0.04,0.2,0.11,0.27c0.08,0.08,0.17,0.11,0.27,0.11h0.1c0.11,0,0.2-0.04,0.27-0.11c0.08-0.08,0.11-0.17,0.11-0.27V93.55z"
				/>
			<path class="st1" d="M35.11,96.45c0.08-0.04,0.13-0.08,0.16-0.11l0.96-1.92l-0.96-1.92c-0.03-0.03-0.09-0.07-0.16-0.11h1.21
				c-0.08,0.04-0.14,0.08-0.18,0.12l0.52,1.04l0.52-1.04c-0.04-0.04-0.1-0.08-0.18-0.12h1.21c-0.08,0.04-0.13,0.08-0.16,0.11
				l-0.96,1.92l0.96,1.92c0.03,0.03,0.09,0.07,0.16,0.11H37c0.08-0.04,0.14-0.08,0.18-0.12l-0.52-1.04l-0.52,1.04
				c0.04,0.04,0.1,0.08,0.18,0.12H35.11z"/>
		</g>
		<g>
			<g>
				<g>
					<g>
						<g>
							<path class="st2" d="M24.62,93.08c-0.03,0.17-0.01,0.56,0.07,0.49l0.06-0.66L24.62,93.08z"/>
							<path class="st2" d="M25.21,94.31c0.1-0.32,0.22-0.88,0.16-1.49c-0.1,0.64-0.13,0.37-0.24,1.13
								c-0.09,0.08-0.15-0.21-0.14-0.46c-0.03,0.17-0.14-0.15-0.19,0.27c0.12,0.51,0.26,0.53,0.41,0.11
								C25.25,94.02,25.22,94.19,25.21,94.31z"/>
							<path class="st2" d="M33.89,95.34l-0.06-0.08C33.85,95.31,33.87,95.33,33.89,95.34z"/>
							<path class="st2" d="M39.26,95.71c-0.04,0.02-0.06,0.08-0.06,0.14C39.24,95.8,39.27,95.76,39.26,95.71z"/>
							<path class="st2" d="M40.18,96.44c-0.02-0.02-0.04-0.03-0.05-0.04C40.15,96.45,40.17,96.49,40.18,96.44z"/>
							<path class="st2" d="M33.89,95.34l0.14,0.21C34.04,95.33,33.96,95.39,33.89,95.34z"/>
							<path class="st2" d="M26.41,92.71c-0.03,0.03-0.06,0.09-0.08,0.17c0.02-0.03,0.05-0.05,0.07-0.07
								C26.41,92.78,26.41,92.75,26.41,92.71z"/>
							<path class="st2" d="M31.52,95.88l-0.04,0c-0.01,0.08-0.02,0.17-0.04,0.27L31.52,95.88z"/>
							<path class="st2" d="M29.7,95.98c0.04,0.02,0.06-0.54,0.07-0.78c-0.02,0.23-0.05,0.34-0.09,0.39
								C29.68,95.69,29.69,95.82,29.7,95.98z"/>
							<path class="st2" d="M26.82,94.99l-0.05,0.08C26.78,95.05,26.8,95.02,26.82,94.99z"/>
							<path class="st2" d="M32.82,96c0,0.08,0.01,0.16,0.02,0.2C32.84,96.13,32.83,96.06,32.82,96z"/>
							<path class="st2" d="M83.67,91.78c0,0.04,0,0.07,0,0.1C83.69,91.82,83.69,91.78,83.67,91.78z"/>
							<path class="st2" d="M85.78,94.56l-0.03,0.03c0,0.11-0.01,0.21-0.01,0.31L85.78,94.56z"/>
							<path class="st2" d="M41.86,97.16c0-0.01,0-0.01-0.01-0.01C41.81,97.21,41.83,97.2,41.86,97.16z"/>
							<path class="st2" d="M57.27,96.74c-0.17-0.5,0.28-0.65,0.02-1.2C57.32,95.76,57.06,96.41,57.27,96.74z"/>
							<path class="st2" d="M26.46,92.79c0.02-0.01,0.05-0.01,0.07-0.01C26.5,92.76,26.47,92.77,26.46,92.79z"/>
							<path class="st2" d="M57.3,95.54C57.3,95.54,57.3,95.53,57.3,95.54l-0.03-0.06C57.28,95.5,57.29,95.52,57.3,95.54z"/>
							<path class="st2" d="M45.73,96.82c-0.01-0.1-0.02-0.17-0.04-0.25C45.69,96.63,45.7,96.7,45.73,96.82z"/>
							<path class="st2" d="M42.84,96.02l0.07,0.08C42.89,96.04,42.86,96.02,42.84,96.02z"/>
							<path class="st2" d="M47.22,96.02c0.04,0.04,0.05,0.12,0.1,0.04c0-0.03-0.01-0.05-0.02-0.07
								C47.29,96.08,47.27,96.11,47.22,96.02z"/>
							<path class="st2" d="M48.78,96.02c-0.01-0.04-0.02-0.08-0.03-0.11c-0.02,0.01-0.03,0.02-0.05,0.03L48.78,96.02z"/>
							<path class="st2" d="M78.94,92.05c0.03,0.16,0.06,0.33,0.07,0.51C78.99,92.15,79.22,92.01,78.94,92.05z"/>
							<path class="st2" d="M26.41,93.03c0.01-0.14,0.02-0.21,0.05-0.24c-0.02,0.01-0.04,0.02-0.05,0.03
								C26.4,92.9,26.4,92.98,26.41,93.03z"/>
							<path class="st2" d="M47.29,91.59l0.25,0.08C47.47,91.62,47.38,91.59,47.29,91.59z"/>
							<path class="st2" d="M67.76,92.13l0.06-0.07C67.8,92.05,67.78,92.06,67.76,92.13z"/>
							<path class="st2" d="M48.27,91.59c0.04,0.2,0.09,0.31,0.14,0.39c0.01-0.04,0.02-0.08,0.03-0.15L48.27,91.59z"/>
							<path class="st2" d="M79.01,92.56C79.01,92.56,79.01,92.55,79.01,92.56C79.01,92.55,79.01,92.56,79.01,92.56z"/>
							<path class="st2" d="M80.64,91.22c-0.24-0.02-0.11,0.72-0.16,1.15c-0.28,0.21-0.13-0.54-0.23-0.92
								c-0.18,0.2-0.31,0.87-0.44,0.85c-0.01-0.12-0.04-0.17-0.01-0.32c-0.19,0.59-0.55,0.03-0.77,0.77
								c-0.02-0.07-0.02-0.13-0.03-0.18c0.04,0.37,0.04,0.75,0.03,1.01c-0.11,0.01-0.2,0.47-0.24-0.02c0.06,0.01,0.07-0.18,0.1-0.33
								l-0.11,0.21c-0.1-0.69,0.15-0.24,0.15-0.75c-0.22,0.23-0.47,0.8-0.63,0.6c-0.03-0.68,0.39-0.23,0.17-0.83l0.26,0.26
								c-0.2-1.07,0.16,0.07-0.02-1.07c-0.34-0.2-0.38,0.35-0.71,0.15c-0.08,0.38,0.03,0.56-0.05,0.94
								c-0.48,0.68-0.38-1.71-0.73-0.8c-0.09,0.45-0.13,1.31-0.38,0.86l0.09-0.77c-0.33-0.08-0.19,1.1-0.53,0.59
								c0.06-0.3,0.26-0.25,0.21-0.35c-0.22-0.61-0.16,0.44-0.33,0.44l-0.04-0.68c-0.35,0.11-0.73,0.6-1.11,0.72
								c0.02-0.2,0.09-0.42,0-0.62c-0.49,0.34-1.04-0.08-1.5-0.49l-0.18,0.59c-0.04-0.01-0.08-0.27-0.03-0.38
								c-0.18-0.22-0.01,0.37-0.1,0.6c-0.1,0.04-0.14-0.34-0.07-0.51c-0.32,0.5-0.92,1.07-1.26,0.44l0.07-0.17
								c-0.26-0.24-0.3,1.2-0.54,0.66l0.05-0.1c-0.57-0.25-1.21,0.28-1.64-0.6c-0.08,0.85-0.57-0.38-0.6,0.8
								c-0.33-0.58-0.23-0.8-0.69-1.19c-0.12-0.05-0.18,0.74-0.34,0.86l0-0.62l-0.21,0.65l-0.11-0.74l-0.14,0.16
								c0.06,0.04,0.12,0.28,0.11,0.45c-0.22,0.28-0.54-0.43-0.55-0.74l-0.53,0.52c0.01-0.25,0.1-0.33,0.17-0.49
								c-0.28,0.63-0.05-0.65-0.31-0.07c0.03,0.14-0.02,0.37-0.02,0.49c-0.13-0.37-0.42-0.38-0.64-0.22l0.04-0.42
								c-0.39-0.11-0.82,0.2-1.26,0.2c0.16,0.2,0.12,0.93-0.01,1.01l-0.05-0.65c-0.08,0.4,0.13,0.25-0.04,0.74
								c-0.16-0.08-0.11-0.74-0.02-0.95l-0.2,0.23c-0.01-0.19,0.04-0.3,0.05-0.54c-0.08,0.4-0.34-0.65-0.46,0.05l-0.01-0.19
								c-0.44-0.01-0.64,0.22-1,0.25c-0.01,0.56-0.15,0.44-0.25,0.89c-0.26-0.18-0.55-0.62-0.87-0.57
								c-0.22,0.28-0.06,0.48-0.17,0.81c-0.02-0.51-0.33-0.46-0.17-0.83c-0.38,0.08-0.49,0.1-0.97,0.52
								c0.05,0.21,0.11,0.3,0.08,0.48c-0.09,0.08-0.2-0.21-0.19-0.46l0.02-0.05c-0.54,0.77-1.25-1.49-1.67-0.43L58.94,92l-0.45,0.56
								c-0.2-0.09,0.12-0.38-0.03-0.7c-0.48,0.86-0.76-0.12-1.16,0.45c-0.31-1.51-1.09,0.11-1.5-0.86l0.02,0.36
								c-0.11,0.35-0.13-0.2-0.21-0.29c0.01,0.28,0.12,0.32,0.05,0.51c-0.91,0.43-1.87-0.52-2.8-0.84c-0.34-0.1-0.19,1.84-0.62,0.99
								l0.12-0.66c-0.69,0.79-1.4-0.03-2.07,0.64c0.04-0.15,0.04-0.35,0.11-0.35c-0.14-0.48-0.52-0.02-0.53,0.37
								c-0.1-0.04-0.02-0.35-0.09-0.55c-0.14-0.28-0.36,0.61-0.43,0.14c-0.01-0.08,0.04-0.16,0.07-0.19
								c-0.09,0.23-0.43-0.06-0.34,0.49c-0.25-0.26-0.48,0.25-0.68-0.08c-0.13,0.62-0.43-0.3-0.47,0.58c0.02-0.9-0.44-0.73-0.6-0.3
								c0.05-0.27-0.14-0.28-0.08-0.66c-0.18,0.01-0.35,0.18-0.32,0.65c-0.33-1.08-0.67,0.87-0.86-0.52
								c-0.54,0.49-1.04,0.82-1.52,1.03c0.02-0.9,0.54-0.09,0.52-1.04c-0.46,0.37-0.73,1.15-1.18,0.93
								c-0.12-0.12,0.07-0.39,0.11-0.55c-0.46,0.37-0.89-0.08-1.3,0.41c0-0.08,0.05-0.18,0.09-0.24c-0.08,0.03-0.19-0.13-0.18,0.28
								l0.08-0.11c0.13,0.6-0.32,1.24-0.33,1.56c0.14-1.18-0.4-0.3-0.19-1.78c-0.05,0.08-0.12,0.27-0.11,0.55
								c-0.08-0.08-0.1-0.24-0.02-0.55c-0.29,0.22-0.19,0.66-0.45,0.65c0-0.2,0.05-0.28,0.08-0.51c-0.13,0.39-0.27,0.77-0.49,0.61
								c0.01-0.12-0.01-0.28,0.05-0.27c-0.38,0.06-0.65,1.03-1.06,0.66c0.12-0.86-0.14-0.28-0.16-1.03l-0.22,0.22l0.09,0.36
								c-0.2-0.01-0.37,0.53-0.54,0.29l0.15-0.31L39.11,93l0.21,0.28c-0.2,0.38,0.02,0.94-0.24,0.74c0.05-0.08-0.2-0.01-0.3-0.45
								c0,0,0,0,0,0c-0.1,0.24-0.2,0.49-0.34,0.3c-0.04-0.24,0.03-0.83,0.01-0.98c-0.1,0.62-0.46,0.17-0.58,0.84
								c0.04-0.16,0.04-0.55,0.03-0.63l-0.08,0.51c-0.09-0.16-0.1-0.24-0.09-0.55c-0.27-0.09,0.09,0.95-0.24,0.54
								c0.03-0.04,0.01-0.12,0.07-0.19c-0.33-0.21-0.63,0.32-0.93,0.07c-0.09-0.75,0.26-0.18,0.16-0.82
								c-0.43,0.14-0.89,0.9-1.31,0.72l0.08,0.08c-0.06,1.06-0.31-0.52-0.52-0.02c0.05-0.08,0.07-0.59,0.05-0.47
								c-0.29-0.17-0.59,0.26-1.02,0.59l0.05-0.27c-0.17-0.24-0.44-0.14-0.63-0.26c-0.05,0.27-0.16,0.23-0.1,0.62
								c-0.56-1.55-1.07,0.83-1.57-0.46c0.06,0,0.14-0.24,0.09-0.24l-0.42,0.25c0.03,0.46,0.06,0.28,0.14,0.64
								c-0.05,0.27-0.17,0.49-0.28,0.49c0.19-0.31,0-0.74-0.08-1c0.01,0.14-0.01,0.3-0.01,0.44c-0.22-0.82-0.04,0.93-0.34,0.38
								l0.02-0.24c-0.11,0.12-0.22,0.44-0.34,0.38c-0.05-0.53,0.12-0.25,0.13-0.69c-0.17,0.03-0.34,1.01-0.49,0.48
								c0.07-0.15,0.18-0.15,0.25-0.3c-0.17-0.63-0.19-0.47-0.31-0.57l0.01,0.01l-0.29-0.28l0.07,0.17
								c-0.21,1.39-0.44,0.25-0.73,1.17c0.28-0.86,0.05-0.5,0.07-1.11c-0.07-0.17-0.19-0.36-0.15-0.53
								c-0.14,0.49-0.23-0.39-0.42,0.33c-0.01-0.2-0.15-0.02-0.12-0.51c-0.18,0.15,0.04,0.34,0.03,0.58
								c-0.27,0.67-0.64-0.81-1.04,0.11c-0.34,0.38-0.4,1.03-0.72,1.36c-0.11-0.31,0.09-0.71,0.09-0.71
								c-0.17-0.29-0.3-0.23-0.46-0.01c0.03-0.17,0-0.31-0.05-0.53c-0.13,0.05-0.09,0.71-0.26,0.42c0.03-0.22,0.07-0.57,0.13-0.78
								c-0.15,0.18-0.3,0.54-0.46,0.72c-0.04-0.34,0.1-0.52,0.15-0.74c-0.18,0.15-0.46,0.31-0.52,0.85l0.11,0.19
								c-0.06,0.03-0.03-0.46,0.01-0.56c0.15-0.42,0.22,0.19,0.23,0.38l-0.11,0.12c0.12,1.14,0.45-0.18,0.68-0.12l-0.09,0.83
								l0.23-0.69c0.05,0.22,0.08,0.68-0.03,0.81c0.16,0.41,0.14-0.3,0.28,0.16c0.02,0.07,0.01,0.11-0.01,0.14l0.16-0.25
								c-0.03,0.17,0.03,0.59-0.07,0.47c0.29,0.48,0.46-0.62,0.57,0.01l-0.02,0.05c0.4-0.28,0.04-0.61,0.34-1.33l0.2,1.51l0.04-0.61
								c0.04,0.02,0.12,0.07,0.11,0.31c0.15-0.42-0.03-0.27,0.06-0.66c0.2,0.56,0.54-0.26,0.59,0.71c0.07-0.46-0.19-0.36,0.02-0.68
								c0.06,1.05,0.24-0.18,0.42,0.3c-0.06,0.54-0.23,0.25-0.05,0.74c0.11-0.91,0.35,0.2,0.5,0.03c0.01-0.73,0.33-0.3,0.58-0.55
								c-0.02,0.24,0.48,0.4,0.72,0.66l-0.01,0.12c0.05-0.73,0.29-0.6,0.47-0.75c-0.01,0.44-0.04,0.61-0.14,0.81l0.17,0
								c0.04-0.24,0.09-0.36,0.2-0.44l-0.04,0.55c0.22-0.03,0.45-0.65,0.73-0.28c0.02-0.51-0.23-1.43,0.08-1.77
								c0.01,0.28,0.02,0.75-0.06,0.86c0.03-0.04,0.09-0.23,0.14-0.11l-0.12,0.47c0.13,0.2,0.07-0.39,0.17-0.35
								c0,0.4,0.08,0.28,0.06,0.6c-0.03,0.04-0.09-0.16-0.13-0.01c0.12,0.07,0.26,0.3,0.31,0.6c-0.01-0.22,0-0.53,0.09-0.58
								c0.22-0.03,0.08,0.48,0.21,0.68c0.05-0.27,0.2,0.01,0.2-0.58c0.07,0,0.08,0.28,0.1,0.44c0.12-0.26,0.54-0.07,0.41-0.7
								l-0.03-0.04c0.01-0.01,0.01-0.01,0.02-0.03c0,0,0,0,0,0h0c0.38-0.59,0.78,0.33,1.16,0.08l0,0.2c0.22-0.23,0.5-0.13,0.66-0.56
								c0.07,0,0.16,0.36,0.13,0.6c0.17-0.15,0.19-0.37,0.44-0.04c-0.17,0.34,0.06,0.31-0.18,0.25c0.22,0.17,0.27,0.49,0.51-0.05
								c-0.08,0.51,0.17,0.64,0.27,0.49l-0.16-0.36c0.12-0.07,0.22-0.03,0.33,0.01l-0.06,0.67c0.45,0.81,0.82-1.38,1.17-0.02
								c0.12-0.47-0.25-0.33-0.14-0.87c0.21,0.09,0.43,1.04,0.49,1.05c0.29,0.37,0.27-0.97,0.57-0.72
								c-0.04-0.24-0.07-0.87,0.15-1.09c0.21,0.09,0.26,1,0.13,1.19c-0.05,0.02-0.07-0.06-0.07-0.14c-0.07,0.09-0.16,0.19-0.07,0.45
								l0.03-0.24c0.1,0.24,0.39,0.22,0.32,0.61c0.16-0.23,0.07-0.39-0.05-0.51c0.27,0.34,0.42,0.01,0.7,0.24
								c-0.04-0.13-0.08-0.41-0.04-0.41c0.41,0.29,0.18-0.45,0.45-0.55c0.16,0.36-0.06,0.86,0.22,0.56
								c0.17,0.25,0.04,0.63-0.03,0.82c0.25-0.46,0.47,0.3,0.61,0.38l-0.13,0.19c0.08-0.11,0.14-0.11,0.21-0.11l-0.08-0.47
								c0.08,0.08,0.14,0.08,0.14,0.28c0.08-0.31-0.06-0.79,0.1-1.21c0.1,0.24,0.32-0.26,0.35,0.37c-0.33-0.21,0.04,0.63-0.24,0.73
								c0.05-0.08,0.12-0.07,0.2,0.01c0.01,0.07-0.01,0.13-0.03,0.17c0.31,0.56,0.14-0.71,0.47-0.7c-0.04,0.36,0.08,0.67,0.13,0.6
								c-0.13-0.01-0.06-0.59,0.06-0.86c0.21,0.28,0.23-0.21,0.33-0.17l-0.12-0.13c0.04-0.35,0.15-0.31,0.29-0.42
								c0.01,0.28-0.13,0.19-0.08,0.31c0.16-0.62,0.36,0.65,0.59,0.23c0.1,0.24,0.01,0.67,0.1,0.83c0.25-0.46,0.27,0.49,0.54,0.11
								c-0.08-0.48-0.09-0.36,0.1-0.83l-0.43,0.34l0.28-0.69c-0.13-0.01-0.28,0.3-0.35,0.22c0.13-0.39,0.12-0.27,0.06-0.67
								c0.18,0.72,0.36-0.42,0.56,0.07l-0.01,1.18c0.31,0.53,0.55-0.61,0.96-0.31l-0.13-0.21c0.05-0.47,0.25-0.07,0.38-0.26
								c-0.01,0.4,0.07,0.54,0.13,0.78c-0.01-0.29,0.3,0.03,0.33-0.76l0.18,0.52c0.33,0.21,0.37-1.12,0.69-0.99
								c-0.09,0.43,0.05,0.71-0.16,1.02c0.1,0,0.2,0.08,0.2-0.2c0.06,0.25,0.29-0.53,0.39-0.16c0.04-0.17,0.06-0.59,0.18-0.55
								c0.01,0.08,0,0.19,0,0.19c0-0.19,0.18-0.27,0.08-0.7c0.32,1.23,0.9-0.09,1.18,0.97c0.23-0.13,0.5-0.26,0.71-0.29
								c-0.01,0.12,0,0.2-0.04,0.16c0.29,0.37,0.18-1.13,0.5-0.72c0.17,0.64-0.17,0.35-0.07,0.59c0.05,1.3,0.39-0.18,0.61,0.58
								l-0.05,0.08c0.17,0.44,0.41-0.49,0.68-0.4c0,0-0.01,0.11,0,0.2c0.19-0.66,0.54-0.88,0.81-1.07
								c-0.08,0.51-0.12,0.27-0.07,0.79c0.12-0.07-0.03-0.83,0.2-0.97c0.08,0.28,0.25,0.52,0.27,1.07l-0.22,0.03
								c0.11,0.71,0.29-0.02,0.4,0.1l-0.01,0.31c0.34-0.1,0.35-0.89,0.71-0.83l-0.04-0.24c0.2-0.78,0.17,0.44,0.37-0.14l0.06,0.79
								c0.13-0.19,0.46-0.76,0.7-0.91c-0.13,0.59-0.41,0.88-0.58,1.23c0.13,0.01,0.44-0.06,0.51-0.45
								c-0.05,0.08-0.12,0.27-0.17,0.15c0.16-0.62,0.37-0.93,0.63-0.91c-0.05,1.53,0.68,0.39,0.87,1.57
								c0.46-0.57,0.92,0.24,1.45,0.15c-0.19-1.19,0.16-0.03,0.12-1.26c0.13-0.08,0.17-0.06,0.18,0.02l0.38,0.73
								c0.09,0.36-0.12,0.27-0.11,0.54c0.27,0.09,0.12,0.52,0.3,0.84c-0.04-0.44,0.1-0.63,0.25-0.46l-0.22-0.56
								c0.38-0.65,0.33,1.03,0.72,0.38l-0.12,0.38c0.2-0.23,0.73,0.01,0.93-0.97c0.04,0.14,0.08,0.48-0.01,0.56
								c0.47,0.15,1.05-1.05,1.42-0.44l-0.04,0.3c0.09-0.09,0.15-0.56,0.26-0.26c-0.01,0.12-0.04,0.3,0.01,0.32
								c0.05-0.1,0.23-0.52,0.35-0.35l-0.1,0.34c0.46,0.39,0.71-0.82,1.1-1.02c0,0.88,0.36,1.17,0.54,1.31l-0.01,0.12
								c0.54,0.11,0.91-0.73,1.41-1.08c0.31,0.96,1.05,0.4,1.54,0.94c-0.08-0.16,0.01-0.69,0.1-0.77c0.12,0.18,0.32-0.61,0.3,0.2
								l-0.04-0.02c0.09,0.79,0.33,0.58,0.51,0.6l0.03-1.06c0.49,1.54,1.28-0.56,1.55,0.81c0.12-0.26,0.26-0.26,0.38-0.52
								l-0.01,0.57c0.33,0.14,0.49,0.22,0.9,0.08l-0.08,0.4c0.23,0.04,0.29-1.63,0.5-1.67l0.06,0.85c0.4-0.01,0.8,0.73,1.19-0.04
								c-0.01,0.12-0.02,0.37-0.08,0.4c0.19,0.02,0.72,0.57,0.66-0.59c0,0.76,0.41,0.07,0.63-0.26l-0.03,0.56
								c0.18-0.71,0.19-0.91,0.44-1.1c0.06,0.07,0.05,0.45-0.03,0.3c0.2,0.29,0.16-0.53,0.4-0.23l-0.09,0.36
								c0.21,0.04,0.19-0.15,0.3-0.56c0.13-0.22,0.39,0.14,0.42,0.64c0.03-0.31,0.14-0.72,0.26-0.57c0.02,0.19-0.03,0.31-0.05,0.37
								c0.34,0.38,0.51-0.65,0.75-0.1c0,0.18,0.02,0.28,0.04,0.33c-0.27-0.01-0.49-0.04-0.47-0.08c0,0.51,0.22,0.6,0.05,1.31
								c0.18-0.39,0.48-1.23,0.7-0.99c0.01,0.05,0.02,0.1,0.03,0.18l-0.02,0.06c0.05,0.05,0.09,0,0.14-0.08
								c0.07,0.08,0.11,0.15,0.18,0.15c0.03,0.42,0.25,0.23,0.36,0.25c-0.01-0.56,0.14-0.47,0-0.94c0.02,0.04-0.02,0.07-0.09,0.09
								c-0.02,0.02-0.04,0.03-0.05,0.06c0-0.02,0-0.03,0.01-0.05c-0.07,0.02-0.17,0.03-0.27,0.04c0.09-0.29,0.18-0.53,0.3-0.21
								c0.06-0.36,0.12-0.73,0.15-0.91c0.15,0.78,0.44,1.21,0.48,1.69c0.34-0.32,0.79-0.21,1-1.26c0.1-0.14,0.11,0.3,0.15,0.47
								c-0.06,0.11-0.12,0.09-0.15,0.24c0.19-0.27,0.57-0.11,0.61-0.84c0.24,0.33-0.14,0.68,0.2,0.56l-0.04,0.23
								c0.65,1.18,1.06-1.88,1.78-0.37c-0.05-0.09-0.08-0.14-0.09-0.26c0.82,0.67,1.7-0.63,2.51,0.43c0.23,0.21,0.26-0.26,0.4-0.62
								l0.05,0.6l0.24-0.7c0.34-0.51,0.59,1.48,1.02,0.52l-0.06-0.41c0.16,0.08,0.49-0.24,0.47,0.23c0.02-0.07,0.05-0.42,0.11-0.21
								l0,0.32l0.38-0.54c0.3,0.23-0.05,1.25,0.39,1.32c0.16-0.12,0.46-0.92,0.4-1.13c-0.06-0.02-0.17-0.2-0.17-0.51l0.15-0.16
								c0.03-0.93,0.14-1.88-0.22-2.54l-0.25,0.57l-0.08-0.45l0.21-0.03c-0.12-0.42-0.2-0.05-0.28,0.21
								c-0.02-0.24-0.06-0.41-0.11-0.5l-0.25,0.89c-0.03-0.36,0.11-0.72-0.05-0.92c-0.12,0.41,0.11,0.82-0.08,1.09
								c-0.12-0.42-0.09-0.77-0.23-0.41c-0.02-0.24,0.01-0.39,0.07-0.5c-0.13,0.29-0.33,0.12-0.4,0.62
								c-0.13-0.52-0.42,0.14-0.41-0.75c-0.04,0.21-0.22,0.69-0.34,0.73c0.21-1.06-0.43-0.06-0.38-1.19
								c-0.16,0.95-0.56,0.42-0.84,0.95c0.02-0.08,0.05-0.23,0.07-0.18c-0.16-0.08-0.2-0.36-0.3-0.54
								c-0.02,0.78-0.26,0.96-0.39,1.45c-0.19-0.76,0.12-0.92,0.06-1.65c0.01,0.64-0.33,0.63-0.27,1.16
								c-0.15-0.47-0.13-0.23-0.2-0.88c-0.03,0.98-0.14,0.17-0.26,0.77c-0.21-0.48-0.05-0.92-0.29-0.62
								C80.44,91.57,80.64,91.22,80.64,91.22z M75.13,92.92c0-0.01,0-0.01,0-0.01c0.05-0.01,0.09-0.02,0.11-0.03
								C75.22,92.88,75.19,92.89,75.13,92.92z M74.67,92.93c0.06,0.02,0.13,0.03,0.2,0.02c0.02,0.19,0,0.39-0.05,0.38
								C74.85,93.2,74.74,93.09,74.67,92.93z M75.65,96.82c-0.07,0.08-0.1-0.03-0.11-0.15c0.03-0.01,0.08-0.03,0.13-0.07
								c0-0.02,0.01-0.04,0.01-0.07C75.67,96.65,75.66,96.75,75.65,96.82z"/>
							<path class="st2" d="M75.78,96.08c0.01-0.01,0.02-0.04,0.03-0.04c-0.01-0.05-0.03-0.09-0.04-0.13
								c-0.01,0.06-0.02,0.12-0.03,0.18C75.76,96.09,75.77,96.09,75.78,96.08z"/>
							<path class="st2" d="M33.82,95.25l0.01,0.01c-0.01-0.02-0.02-0.04-0.02-0.08C33.82,95.21,33.82,95.23,33.82,95.25z"/>
							<polygon class="st2" points="68.28,91.85 68.28,91.99 68.32,91.87 							"/>
							<path class="st2" d="M31.27,93.32c0-0.05-0.01-0.1-0.03-0.14C31.24,93.21,31.25,93.27,31.27,93.32z"/>
							<path class="st2" d="M30.17,93.2L30.01,93C30.08,93.11,30.13,93.16,30.17,93.2z"/>
							<path class="st2" d="M29.32,92.92c-0.01,0.1-0.01,0.17-0.02,0.24c0,0,0,0,0,0L29.32,92.92z"/>
							<path class="st2" d="M42.79,92.26c0.01,0,0.02-0.01,0.03-0.03C42.9,92.12,42.84,92.16,42.79,92.26z"/>
							<path class="st2" d="M38.78,93.57c0.04-0.1,0.08-0.2,0.13-0.27C38.84,93.26,38.78,93.25,38.78,93.57z"/>
							<path class="st2" d="M47.26,91.58C47.26,91.58,47.26,91.58,47.26,91.58c0.01,0.01,0.02,0.01,0.03,0.01L47.26,91.58z"/>
							<path class="st2" d="M39.1,93.31c-0.07-0.11-0.13-0.09-0.19-0.01C38.97,93.34,39.04,93.4,39.1,93.31z"/>
							<path class="st2" d="M25.65,92.66l-0.04-0.02c0,0.04,0,0.07,0,0.09L25.65,92.66z"/>
							<path class="st2" d="M25.61,92.73l-0.05,0.07C25.58,92.8,25.6,92.79,25.61,92.73z"/>
							<path class="st2" d="M25.47,92.94l0.1-0.14C25.53,92.79,25.49,92.78,25.47,92.94z"/>
							<path class="st2" d="M26.77,92.92l0.01-0.2C26.78,92.76,26.78,92.83,26.77,92.92z"/>
							<path class="st2" d="M27.12,92.86c-0.08-0.05-0.2-0.43-0.32-0.31l-0.01,0.16C26.84,92.41,27.04,93.21,27.12,92.86z"/>
							<path class="st2" d="M28.54,95.38l-0.29-0.16c0.05,0.22,0.12,0.51-0.01,0.56C28.6,96.43,28.16,95.3,28.54,95.38z"/>
							<path class="st2" d="M29.42,95.7c-0.15,0.1,0,0.32-0.01,0.44C29.51,95.94,29.54,95.89,29.42,95.7z"/>
							<path class="st2" d="M35.82,95.7l-0.02,0.51C35.92,96.14,35.8,96.01,35.82,95.7z"/>
							<polygon class="st2" points="37.04,93.06 36.93,92.74 36.87,93.21 							"/>
							<polygon class="st2" points="37.76,96.7 37.71,96.77 37.91,96.59 							"/>
							<path class="st2" d="M48.5,96.52l-0.04-0.63C48.39,96,48.37,96.71,48.5,96.52z"/>
							<path class="st2" d="M53.14,95.88c0.05,0.31,0.18,0.52,0.26,0.21C53.3,96.04,53.2,95.8,53.14,95.88z"/>
							<polygon class="st2" points="67.05,96.9 66.96,97.11 67.13,96.94 							"/>
						</g>
					</g>
				</g>
			</g>
		</g>
	</g>
	<g>
		<g>
			<g>
				<path d="M12.95,84.22l-0.83-3.36c1.4-0.73,2.58-1.64,3.51-2.69l25.4-62.12c-0.08-0.11-0.21-0.24-0.43-0.39l-4.92-3.27h16.89
					l0.71,3.42c-0.86,0.37-1.57,0.81-2.11,1.32L27.62,79.38c0.08,0.69,0.37,1.25,0.91,1.74l3.4,3.1H12.95z"/>
				<path class="st3" d="M12.95,82.43c1.71-0.89,3.12-2.01,4.23-3.33l25.75-62.96c-0.09-0.79-0.54-1.45-1.33-1.98h10.98
					c-1.22,0.52-2.2,1.18-2.94,1.98L25.82,79.1c0.03,1.32,0.54,2.44,1.51,3.33H12.95z"/>
				<path d="M39.31,56.81l-0.78-3.38c1.1-0.54,2.01-1.2,2.7-1.96l13-35.35c-0.09-0.13-0.24-0.28-0.5-0.45l-5.12-3.28h18.27
					c3.37,0,5.95,1.26,7.66,3.75c1.71,2.48,2.07,5.5,1.08,8.97L70.6,42.55c-1.09,3.81-3.29,7.14-6.53,9.91
					c-3.38,2.89-6.94,4.36-10.58,4.36H39.31z M56.37,44.46c0.61,0,1.24-0.27,1.92-0.83c0.73-0.6,1.21-1.29,1.46-2.1l5.48-17.44
					c0.21-0.68,0.05-0.93-0.01-1.02c-0.07-0.1-0.15-0.23-0.59-0.23h-2.18l-7.37,21.63H56.37z"/>
				<path class="st3" d="M68.89,42.05c-0.99,3.46-2.98,6.48-5.98,9.05c-3.05,2.61-6.21,3.93-9.42,3.93H39.31
					c1.44-0.71,2.6-1.59,3.48-2.63l13.33-36.25c-0.14-0.79-0.61-1.45-1.43-1.98h12.18c2.76,0,4.82,0.98,6.19,2.98
					c1.4,2.02,1.68,4.51,0.83,7.47L68.89,42.05z M52.58,46.24h3.79c1.03,0,2.05-0.42,3.05-1.24c0.99-0.82,1.67-1.8,2.03-2.94
					l5.48-17.44c0.31-0.99,0.24-1.83-0.22-2.53c-0.45-0.69-1.15-1.04-2.09-1.04h-3.45L52.58,46.24z"/>
				<path d="M91.49,57.76c-0.11-0.41-0.22-0.72-0.31-0.95H67.79l-0.83-3.36c1.02-0.54,1.83-1.17,2.43-1.88l9.52-35.31
					c-0.11-0.16-0.31-0.36-0.67-0.58l-5.48-3.31h17.39l0.75,3.4c-0.73,0.34-1.32,0.74-1.75,1.19l-6.67,27.48h5.95
					c1.69-1.61,3.02-3.62,3.96-6c1.11-2.77,1.46-5.55,1.04-8.28l3.28-1.2c1.18,1.91,1.97,4.11,2.34,6.53l0.05,0.3l-4.13,21.84
					L91.49,57.76z"/>
				<path class="st3" d="M67.79,55.03c1.38-0.73,2.45-1.61,3.22-2.63l9.77-36.25c-0.21-0.79-0.76-1.45-1.62-1.98h10.98
					c-1.14,0.52-2.02,1.18-2.64,1.98L80.2,46.24h8.91c2.16-1.88,3.8-4.27,4.93-7.12c1.24-3.09,1.61-6.16,1.15-9.2
					c1.05,1.71,1.76,3.66,2.1,5.86l-4.07,21.53c-0.28-1.05-0.62-1.81-1.03-2.28H67.79z"/>
				<path d="M97.2,80.44c-1.66-3.13-2.75-6.62-3.24-10.38l-0.03-0.27l9.23-53.38c-0.18-0.25-0.46-0.48-0.84-0.7l-5.84-3.33h30.07
					l-1.06,11.1l-3.43,0.5c-0.2-0.51-0.44-0.9-0.72-1.15h-8.77l-0.68,4.64h10.58l-1.19,11.28h-11.03l-0.83,5.71h9.37
					c0.51-0.38,0.99-0.98,1.44-1.78l3.33,1.04l-1.26,13.1h-15.56c-2.13,2.3-3.79,5.24-4.95,8.74c-1.49,4.42-1.9,9.06-1.23,13.8
					L97.2,80.44z"/>
				<path class="st3" d="M120.67,55.03h-14.7c-2.56,2.57-4.53,5.87-5.89,9.96c-1.57,4.67-2.02,9.53-1.3,14.61
					c-1.58-2.97-2.59-6.23-3.05-9.77l9.29-53.69c-0.29-0.79-0.9-1.45-1.82-1.98h21.38l-0.88,9.15c-0.44-1.08-1.03-1.84-1.8-2.27
					h-10.88l-1.2,8.2h10.66l-0.82,7.72H108.7l-1.36,9.27h11.95c0.94-0.52,1.76-1.42,2.47-2.69L120.67,55.03z"/>
				<path d="M143.14,80.84c-2.1-3.11-3.69-6.58-4.71-10.31l-0.07-0.26l1.46-53.64c-0.26-0.33-0.64-0.62-1.14-0.89l0.83-3.36h10.66
					l6.02,13.87l-0.35-9.55c-0.28-0.35-0.7-0.67-1.25-0.95l0.81-3.37h10.98l0.84,3.35c-0.47,0.25-0.82,0.53-1.06,0.84l2.23,35.28
					c0.41,0.62,1,1.16,1.81,1.62l5.78,3.33h-18.92l-6.97-17.17l-0.01,16.11l-0.43,0.5c-2,2.33-3.39,5.42-4.13,9.18
					c-0.84,4.43-0.58,9.11,0.79,13.91L143.14,80.84z"/>
				<path class="st3" d="M158.28,55.03l-9.95-24.51l-0.01,24.58c-2.21,2.57-3.72,5.89-4.52,10c-0.89,4.7-0.64,9.6,0.82,14.74
					c-2.01-2.97-3.5-6.24-4.47-9.78l1.47-53.91c-0.41-0.79-1.11-1.45-2.1-1.98H149l9.31,21.46l-0.71-19.48
					c-0.44-0.79-1.17-1.45-2.2-1.98h10.98c-0.98,0.52-1.66,1.18-2.03,1.98l2.29,36.25c0.56,1.05,1.45,1.93,2.68,2.63H158.28z"/>
				<path d="M165.03,56.81l5.22-3.29c0.66-0.42,1.13-0.89,1.42-1.43l-3.07-35.31c-0.32-0.38-0.79-0.73-1.39-1.02l0.79-3.38h10.98
					l0.86,3.34c-0.43,0.24-0.75,0.49-0.96,0.78l4.02,35.29c0.45,0.65,1.11,1.21,1.96,1.69l5.97,3.34H165.03z"/>
				<path class="st3" d="M171.2,55.03c1.12-0.71,1.88-1.59,2.28-2.63l-3.16-36.25c-0.5-0.79-1.27-1.45-2.33-1.98h10.98
					c-0.95,0.52-1.6,1.18-1.93,1.98l4.13,36.25c0.61,1.05,1.55,1.93,2.81,2.63H171.2z"/>
				<path d="M210.92,79.44c0.45-4.74-0.17-9.38-1.84-13.81c-1.34-3.54-3.16-6.5-5.42-8.81h-3.26c-3.68,0-7.08-1.49-10.09-4.44
					c-2.88-2.82-4.62-6.21-5.15-10.07l-3.53-25.45c-0.36-0.41-0.86-0.77-1.51-1.08l0.78-3.39h12.18c3.18,0,6.15,1.14,8.85,3.39
					c2.73,2.28,4.48,5.13,5.21,8.46l0.71,3.23h7.06l-5.26,3.29c-0.42,0.26-0.71,0.55-0.89,0.86l8.36,38.1l-0.02,0.27
					c-0.32,3.77-1.26,7.27-2.8,10.41L210.92,79.44z M196.1,41.76c0.12,0.75,0.47,1.38,1.05,1.94c0.72,0.68,1.3,0.76,1.67,0.76h1.6
					l-1.1-5.71h-3.66l-0.96-5.34L196.1,41.76z M197.16,27.46l-0.48-2.51c-0.11-0.6-0.41-1.08-0.91-1.52
					c-0.48-0.41-0.94-0.61-1.45-0.61h-1.35l0.77,4.64H197.16z"/>
				<path class="st3" d="M212.69,79.61c0.49-5.08-0.18-9.94-1.95-14.61c-1.55-4.09-3.67-7.4-6.35-9.96h-4
					c-3.22,0-6.17-1.32-8.84-3.93c-2.62-2.56-4.15-5.59-4.63-9.05l-3.6-25.91c-0.54-0.79-1.35-1.45-2.43-1.98h12.18
					c2.76,0,5.32,0.98,7.7,2.98c2.42,2.02,3.97,4.51,4.62,7.47l0.4,1.82h-7.02l-0.35-1.82c-0.19-0.99-0.69-1.83-1.5-2.53
					c-0.8-0.69-1.67-1.04-2.61-1.04h-3.45l3.48,21.01c0.19,1.14,0.72,2.12,1.59,2.94c0.88,0.83,1.84,1.24,2.9,1.24h3.76l-1.78-9.27
					h-3.64l-1.38-7.72h12.92c-0.94,0.59-1.54,1.33-1.8,2.22l8.41,38.36C215.02,73.37,214.15,76.64,212.69,79.61z"/>
				<path d="M243.55,79.86c-0.05-4.8-1.18-9.51-3.35-13.98c-1.87-3.85-4.24-7.02-7.04-9.43l-0.4-0.34l-5.14-17.36h-4.7l3.41,12.84
					c0.59,0.72,1.4,1.34,2.4,1.86l-0.82,3.37h-18.46l4.66-3.25c0.53-0.37,0.87-0.76,1.06-1.23l-8.44-35.37
					c-0.43-0.45-1.01-0.85-1.74-1.19l0.75-3.4h31.54l-5.29,3.3c-0.3,0.18-0.46,0.35-0.56,0.49l17.3,53.59l0,0.27
					c0.05,3.77-0.53,7.29-1.73,10.44L243.55,79.86z M224.27,27.44l-3.08-10.4c-0.47-0.48-1.1-0.89-1.88-1.24l0.27-1.28l-1.96,1.18
					c-0.36,0.21-0.56,0.42-0.67,0.58l2.96,11.16H224.27z"/>
				<path class="st3" d="M208.36,16.14c-0.62-0.79-1.49-1.45-2.63-1.98h10.98c-0.87,0.52-1.42,1.18-1.63,1.98l3.47,13.08h8.11
					l-3.87-13.08c-0.66-0.79-1.58-1.45-2.74-1.98h10.98c-0.84,0.52-1.34,1.18-1.49,1.98l12.56,38.89l4.85,15.02
					c0.05,3.54-0.48,6.81-1.61,9.78c-0.06-5.13-1.25-10.04-3.53-14.74c-2-4.12-4.49-7.43-7.48-10l-2.62-8.86l-2.74-9.27h-8.35
					l4.09,15.43c0.77,1.05,1.84,1.93,3.21,2.63h-12.78c1.01-0.71,1.64-1.59,1.88-2.63L208.36,16.14z"/>
				<path d="M257.57,84.22l3.48-3.11c0.56-0.5,0.87-1.07,0.97-1.77l-19.84-56.5h-3.97c-0.12,0.24-0.19,0.56-0.22,0.77l-3.45,0.29
					l-3.91-11.51h25.88l4.39,10.23l-2.95,1.91c-0.72-0.78-1.42-1.35-2.09-1.7h-2.98l21.15,55.36c0.9,1.05,2.05,1.94,3.43,2.67
					l-0.83,3.36H257.57z"/>
				<path class="st3" d="M255.32,14.17l3.92,9.15c-1.01-1.08-2-1.84-2.99-2.27h-5.97l22.18,58.06c1.08,1.32,2.46,2.44,4.15,3.33
					h-14.39c1-0.89,1.53-2.01,1.59-3.33l-20.39-58.06h-5.97c-0.66,0.43-1.07,1.19-1.24,2.27l-3.11-9.15H255.32z"/>
			</g>
			<path d="M263.85,38.98l5.84-6.67h13.17l5.84,6.67l-2.13,2.77c-1.21-0.6-2.77-1.03-4.64-1.3h-11.3c-1.87,0.27-3.43,0.7-4.64,1.3
				L263.85,38.98z"/>
			<path class="st3" d="M287.35,40.15c-1.41-0.7-3.18-1.19-5.31-1.48h-11.55c-2.12,0.29-3.89,0.79-5.31,1.48l5.31-6.06h11.55
				L287.35,40.15z"/>
			<path d="M1.77,38.98l5.84-6.67h13.17l5.84,6.67l-2.13,2.77c-1.21-0.6-2.77-1.03-4.64-1.3H8.54c-1.87,0.27-3.43,0.7-4.64,1.3
				L1.77,38.98z"/>
			<path class="st3" d="M25.27,40.15c-1.41-0.7-3.18-1.19-5.31-1.48H8.42c-2.12,0.29-3.89,0.79-5.31,1.48l5.31-6.06h11.55
				L25.27,40.15z"/>
			<path d="M40.8,62.65h204.98v10.11H45.7c-2.56,0.39-4.7,1.03-6.38,1.91l-4.31,2.27L40.8,62.65z"/>
			<path class="st3" d="M244,70.98H45.57c-2.83,0.42-5.19,1.12-7.08,2.12L42,64.44h202V70.98z"/>
		</g>
	</g>
	<g>
		<g>
			<g>
				<path class="st3" d="M12.95,82.43c1.71-0.89,3.12-2.01,4.23-3.33l25.75-62.96c-0.09-0.79-0.54-1.45-1.33-1.98h10.98
					c-1.22,0.52-2.2,1.18-2.94,1.98L25.82,79.1c0.03,1.32,0.54,2.44,1.51,3.33H12.95z"/>
				<path class="st3" d="M68.89,42.05c-0.99,3.46-2.98,6.48-5.98,9.05c-3.05,2.61-6.21,3.93-9.42,3.93H39.31
					c1.44-0.71,2.6-1.59,3.48-2.63l13.33-36.25c-0.14-0.79-0.61-1.45-1.43-1.98h12.18c2.76,0,4.82,0.98,6.19,2.98
					c1.4,2.02,1.68,4.51,0.83,7.47L68.89,42.05z M52.58,46.24h3.79c1.03,0,2.05-0.42,3.05-1.24c0.99-0.82,1.67-1.8,2.03-2.94
					l5.48-17.44c0.31-0.99,0.24-1.83-0.22-2.53c-0.45-0.69-1.15-1.04-2.09-1.04h-3.45L52.58,46.24z"/>
				<path class="st3" d="M67.79,55.03c1.38-0.73,2.45-1.61,3.22-2.63l9.77-36.25c-0.21-0.79-0.76-1.45-1.62-1.98h10.98
					c-1.14,0.52-2.02,1.18-2.64,1.98L80.2,46.24h8.91c2.16-1.88,3.8-4.27,4.93-7.12c1.24-3.09,1.61-6.16,1.15-9.2
					c1.05,1.71,1.76,3.66,2.1,5.86l-4.07,21.53c-0.28-1.05-0.62-1.81-1.03-2.28H67.79z"/>
				<path class="st3" d="M120.67,55.03h-14.7c-2.56,2.57-4.53,5.87-5.89,9.96c-1.57,4.67-2.02,9.53-1.3,14.61
					c-1.58-2.97-2.59-6.23-3.05-9.77l9.29-53.69c-0.29-0.79-0.9-1.45-1.82-1.98h21.38l-0.88,9.15c-0.44-1.08-1.03-1.84-1.8-2.27
					h-10.88l-1.2,8.2h10.66l-0.82,7.72H108.7l-1.36,9.27h11.95c0.94-0.52,1.76-1.42,2.47-2.69L120.67,55.03z"/>
				<path class="st3" d="M158.28,55.03l-9.95-24.51l-0.01,24.58c-2.21,2.57-3.72,5.89-4.52,10c-0.89,4.7-0.64,9.6,0.82,14.74
					c-2.01-2.97-3.5-6.24-4.47-9.78l1.47-53.91c-0.41-0.79-1.11-1.45-2.1-1.98H149l9.31,21.46l-0.71-19.48
					c-0.44-0.79-1.17-1.45-2.2-1.98h10.98c-0.98,0.52-1.66,1.18-2.03,1.98l2.29,36.25c0.56,1.05,1.45,1.93,2.68,2.63H158.28z"/>
				<path class="st3" d="M171.2,55.03c1.12-0.71,1.88-1.59,2.28-2.63l-3.16-36.25c-0.5-0.79-1.27-1.45-2.33-1.98h10.98
					c-0.95,0.52-1.6,1.18-1.93,1.98l4.13,36.25c0.61,1.05,1.55,1.93,2.81,2.63H171.2z"/>
				<path class="st3" d="M212.69,79.61c0.49-5.08-0.18-9.94-1.95-14.61c-1.55-4.09-3.67-7.4-6.35-9.96h-4
					c-3.22,0-6.17-1.32-8.84-3.93c-2.62-2.56-4.15-5.59-4.63-9.05l-3.6-25.91c-0.54-0.79-1.35-1.45-2.43-1.98h12.18
					c2.76,0,5.32,0.98,7.7,2.98c2.42,2.02,3.97,4.51,4.62,7.47l0.4,1.82h-7.02l-0.35-1.82c-0.19-0.99-0.69-1.83-1.5-2.53
					c-0.8-0.69-1.67-1.04-2.61-1.04h-3.45l3.48,21.01c0.19,1.14,0.72,2.12,1.59,2.94c0.88,0.83,1.84,1.24,2.9,1.24h3.76l-1.78-9.27
					h-3.64l-1.38-7.72h12.92c-0.94,0.59-1.54,1.33-1.8,2.22l8.41,38.36C215.02,73.37,214.15,76.64,212.69,79.61z"/>
				<path class="st3" d="M208.36,16.14c-0.62-0.79-1.49-1.45-2.63-1.98h10.98c-0.87,0.52-1.42,1.18-1.63,1.98l3.47,13.08h8.11
					l-3.87-13.08c-0.66-0.79-1.58-1.45-2.74-1.98h10.98c-0.84,0.52-1.34,1.18-1.49,1.98l12.56,38.89l4.85,15.02
					c0.05,3.54-0.48,6.81-1.61,9.78c-0.06-5.13-1.25-10.04-3.53-14.74c-2-4.12-4.49-7.43-7.48-10l-2.62-8.86l-2.74-9.27h-8.35
					l4.09,15.43c0.77,1.05,1.84,1.93,3.21,2.63h-12.78c1.01-0.71,1.64-1.59,1.88-2.63L208.36,16.14z"/>
				<path class="st3" d="M255.32,14.17l3.92,9.15c-1.01-1.08-2-1.84-2.99-2.27h-5.97l22.18,58.06c1.08,1.32,2.46,2.44,4.15,3.33
					h-14.39c1-0.89,1.53-2.01,1.59-3.33l-20.39-58.06h-5.97c-0.66,0.43-1.07,1.19-1.24,2.27l-3.11-9.15H255.32z"/>
			</g>
			<path class="st3" d="M287.35,40.15c-1.41-0.7-3.18-1.19-5.31-1.48h-11.55c-2.12,0.29-3.89,0.79-5.31,1.48l5.31-6.06h11.55
				L287.35,40.15z"/>
			<path class="st3" d="M25.27,40.15c-1.41-0.7-3.18-1.19-5.31-1.48H8.42c-2.12,0.29-3.89,0.79-5.31,1.48l5.31-6.06h11.55
				L25.27,40.15z"/>
			<path class="st3" d="M244,70.98H45.57c-2.83,0.42-5.19,1.12-7.08,2.12L42,64.44h202V70.98z"/>
		</g>
	</g>
</g>
</svg>
